<?xml version="1.0" encoding="UTF-8" standalone="no"?>
<!DOCTYPE svg PUBLIC "-//W3C//DTD SVG 1.1//EN"
 "http://www.w3.org/Graphics/SVG/1.1/DTD/svg11.dtd">
<!-- Generated by graphviz version 2.38.0 (20140413.2041)
 -->
<!-- Title: graphname Pages: 1 -->
<svg width="854pt" height="430pt"
 viewBox="0.00 0.00 854.00 430.00" xmlns="http://www.w3.org/2000/svg" xmlns:xlink="http://www.w3.org/1999/xlink">
<g id="graph0" class="graph" transform="scale(1 1) rotate(0) translate(4 426)">
<title>graphname</title>
<polygon fill="white" stroke="none" points="-4,4 -4,-426 850,-426 850,4 -4,4"/>
<!-- l0 -->
<g id="node1" class="node"><title>l0</title>
<polygon fill="none" stroke="black" points="439.5,-422 295.5,-422 295.5,-398 439.5,-398 439.5,-422"/>
<text text-anchor="middle" x="367.5" y="-405.4" font-family="Times,serif" font-size="14.00">img_feature type=data</text>
</g>
<!-- l1 -->
<g id="node2" class="node"><title>l1</title>
<polygon fill="none" stroke="black" points="484,-346 251,-346 251,-306 484,-306 484,-346"/>
<text text-anchor="start" x="259" y="-329.4" font-family="Times,serif" font-size="14.00">__fc_layer_0__ type=fc</text>
<text text-anchor="middle" x="367.5" y="-313.4" font-family="Times,serif" font-size="14.00">act=tanh bias=___fc_layer_0__.wbias </text>
</g>
<!-- l0&#45;&gt;l1 -->
<g id="edge1" class="edge"><title>l0&#45;&gt;l1</title>
<path fill="none" stroke="black" d="M367.5,-397.941C367.5,-387.247 367.5,-370.578 367.5,-356.084"/>
<polygon fill="black" stroke="black" points="371,-356.031 367.5,-346.031 364,-356.031 371,-356.031"/>
<text text-anchor="middle" x="425.5" y="-367.4" font-family="Times,serif" font-size="14.00">___fc_layer_0__.w0</text>
</g>
<!-- l2 -->
<g id="node3" class="node"><title>l2</title>
<polygon fill="none" stroke="black" points="484,-254 251,-254 251,-214 484,-214 484,-254"/>
<text text-anchor="start" x="259" y="-237.4" font-family="Times,serif" font-size="14.00">__fc_layer_1__ type=fc</text>
<text text-anchor="middle" x="367.5" y="-221.4" font-family="Times,serif" font-size="14.00">act=tanh bias=___fc_layer_1__.wbias </text>
</g>
<!-- l1&#45;&gt;l2 -->
<g id="edge2" class="edge"><title>l1&#45;&gt;l2</title>
<path fill="none" stroke="black" d="M367.5,-305.913C367.5,-293.862 367.5,-278.049 367.5,-264.414"/>
<polygon fill="black" stroke="black" points="371,-264.059 367.5,-254.059 364,-264.059 371,-264.059"/>
<text text-anchor="middle" x="425.5" y="-275.4" font-family="Times,serif" font-size="14.00">___fc_layer_1__.w0</text>
</g>
<!-- l6 -->
<g id="node7" class="node"><title>l6</title>
<polygon fill="none" stroke="black" points="284,-177 125,-177 125,-153 284,-153 284,-177"/>
<text text-anchor="middle" x="204.5" y="-160.4" font-family="Times,serif" font-size="14.00">__cos_sim_0__ type=cos</text>
</g>
<!-- l2&#45;&gt;l6 -->
<g id="edge5" class="edge"><title>l2&#45;&gt;l6</title>
<path fill="none" stroke="black" d="M321.227,-213.98C295.748,-203.507 264.581,-190.696 240.864,-180.947"/>
<polygon fill="black" stroke="black" points="242.099,-177.671 231.519,-177.106 239.437,-184.145 242.099,-177.671"/>
</g>
<!-- l11 -->
<g id="node12" class="node"><title>l11</title>
<polygon fill="none" stroke="black" points="555,-177 396,-177 396,-153 555,-153 555,-177"/>
<text text-anchor="middle" x="475.5" y="-160.4" font-family="Times,serif" font-size="14.00">__cos_sim_1__ type=cos</text>
</g>
<!-- l2&#45;&gt;l11 -->
<g id="edge10" class="edge"><title>l2&#45;&gt;l11</title>
<path fill="none" stroke="black" d="M398.16,-213.98C414.216,-204.019 433.681,-191.943 449.067,-182.398"/>
<polygon fill="black" stroke="black" points="450.945,-185.352 457.598,-177.106 447.255,-179.404 450.945,-185.352"/>
</g>
<!-- l3 -->
<g id="node4" class="node"><title>l3</title>
<polygon fill="none" stroke="black" points="179,-422 54,-422 54,-398 179,-398 179,-422"/>
<text text-anchor="middle" x="116.5" y="-405.4" font-family="Times,serif" font-size="14.00">pos_title type=data</text>
</g>
<!-- l4 -->
<g id="node5" class="node"><title>l4</title>
<polygon fill="none" stroke="black" points="233,-346 1.42109e-14,-346 1.42109e-14,-306 233,-306 233,-346"/>
<text text-anchor="start" x="8" y="-329.4" font-family="Times,serif" font-size="14.00">__fc_layer_2__ type=fc</text>
<text text-anchor="middle" x="116.5" y="-313.4" font-family="Times,serif" font-size="14.00">act=tanh bias=___fc_layer_2__.wbias </text>
</g>
<!-- l3&#45;&gt;l4 -->
<g id="edge3" class="edge"><title>l3&#45;&gt;l4</title>
<path fill="none" stroke="black" d="M116.5,-397.941C116.5,-387.247 116.5,-370.578 116.5,-356.084"/>
<polygon fill="black" stroke="black" points="120,-356.031 116.5,-346.031 113,-356.031 120,-356.031"/>
<text text-anchor="middle" x="174.5" y="-367.4" font-family="Times,serif" font-size="14.00">___fc_layer_2__.w0</text>
</g>
<!-- l5 -->
<g id="node6" class="node"><title>l5</title>
<polygon fill="none" stroke="black" points="233,-254 1.42109e-14,-254 1.42109e-14,-214 233,-214 233,-254"/>
<text text-anchor="start" x="8" y="-237.4" font-family="Times,serif" font-size="14.00">__fc_layer_3__ type=fc</text>
<text text-anchor="middle" x="116.5" y="-221.4" font-family="Times,serif" font-size="14.00">act=tanh bias=___fc_layer_3__.wbias </text>
</g>
<!-- l4&#45;&gt;l5 -->
<g id="edge4" class="edge"><title>l4&#45;&gt;l5</title>
<path fill="none" stroke="black" d="M116.5,-305.913C116.5,-293.862 116.5,-278.049 116.5,-264.414"/>
<polygon fill="black" stroke="black" points="120,-264.059 116.5,-254.059 113,-264.059 120,-264.059"/>
<text text-anchor="middle" x="174.5" y="-275.4" font-family="Times,serif" font-size="14.00">___fc_layer_3__.w0</text>
</g>
<!-- l5&#45;&gt;l6 -->
<g id="edge6" class="edge"><title>l5&#45;&gt;l6</title>
<path fill="none" stroke="black" d="M141.482,-213.98C154.198,-204.298 169.538,-192.618 181.9,-183.207"/>
<polygon fill="black" stroke="black" points="184.077,-185.948 189.913,-177.106 179.836,-180.379 184.077,-185.948"/>
</g>
<!-- l7 -->
<g id="node8" class="node"><title>l7</title>
<polygon fill="none" stroke="black" points="331,-101 78,-101 78,-61 331,-61 331,-101"/>
<text text-anchor="start" x="86" y="-84.4" font-family="Times,serif" font-size="14.00">__fc_layer_4__ type=fc</text>
<text text-anchor="middle" x="204.5" y="-68.4" font-family="Times,serif" font-size="14.00">act=sigmoid bias=___fc_layer_4__.wbias </text>
</g>
<!-- l6&#45;&gt;l7 -->
<g id="edge7" class="edge"><title>l6&#45;&gt;l7</title>
<path fill="none" stroke="black" d="M204.5,-152.941C204.5,-142.247 204.5,-125.578 204.5,-111.084"/>
<polygon fill="black" stroke="black" points="208,-111.031 204.5,-101.031 201,-111.031 208,-111.031"/>
<text text-anchor="middle" x="228.5" y="-122.4" font-family="Times,serif" font-size="14.00">layer2.w</text>
</g>
<!-- l15 -->
<g id="node16" class="node"><title>l15</title>
<polygon fill="none" stroke="black" points="715.5,-24 515.5,-24 515.5,-0 715.5,-0 715.5,-24"/>
<text text-anchor="middle" x="615.5" y="-7.4" font-family="Times,serif" font-size="14.00">__rank_cost_0__ type=rank&#45;cost</text>
</g>
<!-- l7&#45;&gt;l15 -->
<g id="edge13" class="edge"><title>l7&#45;&gt;l15</title>
<path fill="none" stroke="black" d="M321.177,-60.9797C390.643,-49.6556 476.876,-35.5981 538.002,-25.6335"/>
<polygon fill="black" stroke="black" points="538.663,-29.072 547.97,-24.0086 537.537,-22.1632 538.663,-29.072"/>
</g>
<!-- l8 -->
<g id="node9" class="node"><title>l8</title>
<polygon fill="none" stroke="black" points="680.5,-422 556.5,-422 556.5,-398 680.5,-398 680.5,-422"/>
<text text-anchor="middle" x="618.5" y="-405.4" font-family="Times,serif" font-size="14.00">neg_title type=data</text>
</g>
<!-- l9 -->
<g id="node10" class="node"><title>l9</title>
<polygon fill="none" stroke="black" points="735,-346 502,-346 502,-306 735,-306 735,-346"/>
<text text-anchor="start" x="510" y="-329.4" font-family="Times,serif" font-size="14.00">__fc_layer_5__ type=fc</text>
<text text-anchor="middle" x="618.5" y="-313.4" font-family="Times,serif" font-size="14.00">act=tanh bias=___fc_layer_5__.wbias </text>
</g>
<!-- l8&#45;&gt;l9 -->
<g id="edge8" class="edge"><title>l8&#45;&gt;l9</title>
<path fill="none" stroke="black" d="M618.5,-397.941C618.5,-387.247 618.5,-370.578 618.5,-356.084"/>
<polygon fill="black" stroke="black" points="622,-356.031 618.5,-346.031 615,-356.031 622,-356.031"/>
<text text-anchor="middle" x="676.5" y="-367.4" font-family="Times,serif" font-size="14.00">___fc_layer_5__.w0</text>
</g>
<!-- l10 -->
<g id="node11" class="node"><title>l10</title>
<polygon fill="none" stroke="black" points="735,-254 502,-254 502,-214 735,-214 735,-254"/>
<text text-anchor="start" x="510" y="-237.4" font-family="Times,serif" font-size="14.00">__fc_layer_6__ type=fc</text>
<text text-anchor="middle" x="618.5" y="-221.4" font-family="Times,serif" font-size="14.00">act=tanh bias=___fc_layer_6__.wbias </text>
</g>
<!-- l9&#45;&gt;l10 -->
<g id="edge9" class="edge"><title>l9&#45;&gt;l10</title>
<path fill="none" stroke="black" d="M618.5,-305.913C618.5,-293.862 618.5,-278.049 618.5,-264.414"/>
<polygon fill="black" stroke="black" points="622,-264.059 618.5,-254.059 615,-264.059 622,-264.059"/>
<text text-anchor="middle" x="676.5" y="-275.4" font-family="Times,serif" font-size="14.00">___fc_layer_6__.w0</text>
</g>
<!-- l10&#45;&gt;l11 -->
<g id="edge11" class="edge"><title>l10&#45;&gt;l11</title>
<path fill="none" stroke="black" d="M577.904,-213.98C555.949,-203.693 529.18,-191.151 508.518,-181.47"/>
<polygon fill="black" stroke="black" points="509.744,-178.179 499.204,-177.106 506.774,-184.518 509.744,-178.179"/>
</g>
<!-- l12 -->
<g id="node13" class="node"><title>l12</title>
<polygon fill="none" stroke="black" points="602,-101 349,-101 349,-61 602,-61 602,-101"/>
<text text-anchor="start" x="357" y="-84.4" font-family="Times,serif" font-size="14.00">__fc_layer_7__ type=fc</text>
<text text-anchor="middle" x="475.5" y="-68.4" font-family="Times,serif" font-size="14.00">act=sigmoid bias=___fc_layer_7__.wbias </text>
</g>
<!-- l11&#45;&gt;l12 -->
<g id="edge12" class="edge"><title>l11&#45;&gt;l12</title>
<path fill="none" stroke="black" d="M475.5,-152.941C475.5,-142.247 475.5,-125.578 475.5,-111.084"/>
<polygon fill="black" stroke="black" points="479,-111.031 475.5,-101.031 472,-111.031 479,-111.031"/>
<text text-anchor="middle" x="499.5" y="-122.4" font-family="Times,serif" font-size="14.00">layer2.w</text>
</g>
<!-- l12&#45;&gt;l15 -->
<g id="edge14" class="edge"><title>l12&#45;&gt;l15</title>
<path fill="none" stroke="black" d="M515.244,-60.9797C536.739,-50.693 562.946,-38.1507 583.175,-28.4699"/>
<polygon fill="black" stroke="black" points="584.784,-31.58 592.293,-24.106 581.762,-25.2658 584.784,-31.58"/>
</g>
<!-- l13 -->
<g id="node14" class="node"><title>l13</title>
<polygon fill="none" stroke="black" points="723,-93 620,-93 620,-69 723,-69 723,-93"/>
<text text-anchor="middle" x="671.5" y="-76.4" font-family="Times,serif" font-size="14.00">label type=data</text>
</g>
<!-- l13&#45;&gt;l15 -->
<g id="edge15" class="edge"><title>l13&#45;&gt;l15</title>
<path fill="none" stroke="black" d="M662.253,-68.9363C653.873,-58.9103 641.345,-43.9222 631.367,-31.9836"/>
<polygon fill="black" stroke="black" points="634.047,-29.7323 624.948,-24.3041 628.676,-34.2215 634.047,-29.7323"/>
</g>
<!-- l14 -->
<g id="node15" class="node"><title>l14</title>
<polygon fill="none" stroke="black" points="846,-93 741,-93 741,-69 846,-69 846,-93"/>
<text text-anchor="middle" x="793.5" y="-76.4" font-family="Times,serif" font-size="14.00">score type=data</text>
</g>
<!-- l14&#45;&gt;l15 -->
<g id="edge16" class="edge"><title>l14&#45;&gt;l15</title>
<path fill="none" stroke="black" d="M764.107,-68.9363C734.218,-57.6861 687.731,-40.188 654.717,-27.7613"/>
<polygon fill="black" stroke="black" points="655.529,-24.3273 644.937,-24.0801 653.063,-30.8786 655.529,-24.3273"/>
</g>
</g>
</svg>
