<?xml version="1.0" encoding="UTF-8" standalone="no"?>
<!DOCTYPE svg PUBLIC "-//W3C//DTD SVG 1.1//EN"
 "http://www.w3.org/Graphics/SVG/1.1/DTD/svg11.dtd">
<!-- Generated by graphviz version 2.38.0 (20140413.2041)
 -->
<!-- Title: graphname Pages: 1 -->
<svg width="810pt" height="1026pt"
 viewBox="0.00 0.00 809.50 1026.00" xmlns="http://www.w3.org/2000/svg" xmlns:xlink="http://www.w3.org/1999/xlink">
<g id="graph0" class="graph" transform="scale(1 1) rotate(0) translate(4 1022)">
<title>graphname</title>
<polygon fill="white" stroke="none" points="-4,4 -4,-1022 805.5,-1022 805.5,4 -4,4"/>
<!-- l0 -->
<g id="node1" class="node"><title>l0</title>
<polygon fill="none" stroke="black" points="215.5,-338 71.5,-338 71.5,-314 215.5,-314 215.5,-338"/>
<text text-anchor="middle" x="143.5" y="-321.4" font-family="Times,serif" font-size="14.00">img_feature type=data</text>
</g>
<!-- l1 -->
<g id="node2" class="node"><title>l1</title>
<polygon fill="none" stroke="black" points="260,-254 27,-254 27,-214 260,-214 260,-254"/>
<text text-anchor="start" x="35" y="-237.4" font-family="Times,serif" font-size="14.00">__fc_layer_0__ type=fc</text>
<text text-anchor="middle" x="143.5" y="-221.4" font-family="Times,serif" font-size="14.00">act=tanh bias=___fc_layer_0__.wbias </text>
</g>
<!-- l0&#45;&gt;l1 -->
<g id="edge1" class="edge"><title>l0&#45;&gt;l1</title>
<path fill="none" stroke="black" d="M143.5,-313.964C143.5,-301.681 143.5,-281.326 143.5,-264.359"/>
<polygon fill="black" stroke="black" points="147,-264.335 143.5,-254.335 140,-264.335 147,-264.335"/>
<text text-anchor="middle" x="201.5" y="-275.4" font-family="Times,serif" font-size="14.00">___fc_layer_0__.w0</text>
</g>
<!-- l15 -->
<g id="node16" class="node"><title>l15</title>
<polygon fill="none" stroke="black" points="376,-177 217,-177 217,-153 376,-153 376,-177"/>
<text text-anchor="middle" x="296.5" y="-160.4" font-family="Times,serif" font-size="14.00">__cos_sim_0__ type=cos</text>
</g>
<!-- l1&#45;&gt;l15 -->
<g id="edge16" class="edge"><title>l1&#45;&gt;l15</title>
<path fill="none" stroke="black" d="M186.934,-213.98C210.638,-203.6 239.585,-190.924 261.772,-181.208"/>
<polygon fill="black" stroke="black" points="263.382,-184.323 271.139,-177.106 260.574,-177.911 263.382,-184.323"/>
</g>
<!-- l2 -->
<g id="node3" class="node"><title>l2</title>
<polygon fill="none" stroke="black" points="401,-1018 276,-1018 276,-994 401,-994 401,-1018"/>
<text text-anchor="middle" x="338.5" y="-1001.4" font-family="Times,serif" font-size="14.00">pos_title type=data</text>
</g>
<!-- l3 -->
<g id="node4" class="node"><title>l3</title>
<polygon fill="none" stroke="black" points="434,-942 243,-942 243,-918 434,-918 434,-942"/>
<text text-anchor="middle" x="338.5" y="-925.4" font-family="Times,serif" font-size="14.00">__embedding_0__ type=mixed</text>
</g>
<!-- l2&#45;&gt;l3 -->
<g id="edge2" class="edge"><title>l2&#45;&gt;l3</title>
<path fill="none" stroke="black" d="M338.5,-993.761C338.5,-982.895 338.5,-966.144 338.5,-952.68"/>
<polygon fill="black" stroke="black" points="342,-952.345 338.5,-942.345 335,-952.345 342,-952.345"/>
<text text-anchor="middle" x="359" y="-963.4" font-family="Times,serif" font-size="14.00">layer.w</text>
</g>
<!-- l4 -->
<g id="node5" class="node"><title>l4</title>
<polygon fill="none" stroke="black" points="343,-866 2.84217e-14,-866 2.84217e-14,-842 343,-842 343,-866"/>
<text text-anchor="middle" x="171.5" y="-849.4" font-family="Times,serif" font-size="14.00">lstm_transform___bidirectional_lstm_0___fw type=mixed</text>
</g>
<!-- l3&#45;&gt;l4 -->
<g id="edge3" class="edge"><title>l3&#45;&gt;l4</title>
<path fill="none" stroke="black" d="M257.424,-917.968C241.854,-913.774 226.162,-907.987 212.5,-900 201.575,-893.613 191.901,-883.357 184.697,-874.248"/>
<polygon fill="black" stroke="black" points="187.362,-871.966 178.587,-866.029 181.745,-876.143 187.362,-871.966"/>
<text text-anchor="middle" x="355" y="-887.4" font-family="Times,serif" font-size="14.00">_lstm_transform___bidirectional_lstm_0___fw.w0</text>
</g>
<!-- l6 -->
<g id="node7" class="node"><title>l6</title>
<polygon fill="none" stroke="black" points="706,-866 361,-866 361,-842 706,-842 706,-866"/>
<text text-anchor="middle" x="533.5" y="-849.4" font-family="Times,serif" font-size="14.00">lstm_transform___bidirectional_lstm_0___bw type=mixed</text>
</g>
<!-- l3&#45;&gt;l6 -->
<g id="edge5" class="edge"><title>l3&#45;&gt;l6</title>
<path fill="none" stroke="black" d="M434.125,-922.877C456.039,-918.475 478.467,-911.363 497.5,-900 507.68,-893.923 516.149,-883.829 522.31,-874.74"/>
<polygon fill="black" stroke="black" points="525.335,-876.504 527.679,-866.172 519.403,-872.787 525.335,-876.504"/>
<text text-anchor="middle" x="658" y="-887.4" font-family="Times,serif" font-size="14.00">_lstm_transform___bidirectional_lstm_0___bw.w0</text>
</g>
<!-- l5 -->
<g id="node6" class="node"><title>l5</title>
<polygon fill="none" stroke="black" points="346.5,-790 36.5,-790 36.5,-750 346.5,-750 346.5,-790"/>
<text text-anchor="start" x="44.5" y="-773.4" font-family="Times,serif" font-size="14.00">__bidirectional_lstm_0___fw type=lstmemory</text>
<text text-anchor="middle" x="191.5" y="-757.4" font-family="Times,serif" font-size="14.00">act=tanh bias=___bidirectional_lstm_0___fw.wbias </text>
</g>
<!-- l4&#45;&gt;l5 -->
<g id="edge4" class="edge"><title>l4&#45;&gt;l5</title>
<path fill="none" stroke="black" d="M174.197,-841.941C176.806,-831.247 180.871,-814.578 184.406,-800.084"/>
<polygon fill="black" stroke="black" points="187.889,-800.576 186.858,-790.031 181.088,-798.917 187.889,-800.576"/>
<text text-anchor="middle" x="279" y="-811.4" font-family="Times,serif" font-size="14.00">___bidirectional_lstm_0___fw.w0</text>
</g>
<!-- l8 -->
<g id="node9" class="node"><title>l8</title>
<polygon fill="none" stroke="black" points="511,-713 278,-713 278,-689 511,-689 511,-713"/>
<text text-anchor="middle" x="394.5" y="-696.4" font-family="Times,serif" font-size="14.00">__bidirectional_lstm_0__ type=concat</text>
</g>
<!-- l5&#45;&gt;l8 -->
<g id="edge7" class="edge"><title>l5&#45;&gt;l8</title>
<path fill="none" stroke="black" d="M249.129,-749.98C281.67,-739.239 321.662,-726.04 351.458,-716.206"/>
<polygon fill="black" stroke="black" points="352.747,-719.466 361.146,-713.009 350.553,-712.819 352.747,-719.466"/>
</g>
<!-- l7 -->
<g id="node8" class="node"><title>l7</title>
<polygon fill="none" stroke="black" points="678.5,-790 366.5,-790 366.5,-750 678.5,-750 678.5,-790"/>
<text text-anchor="start" x="374.5" y="-773.4" font-family="Times,serif" font-size="14.00">__bidirectional_lstm_0___bw type=lstmemory &lt;==</text>
<text text-anchor="middle" x="522.5" y="-757.4" font-family="Times,serif" font-size="14.00">act=tanh bias=___bidirectional_lstm_0___bw.wbias </text>
</g>
<!-- l6&#45;&gt;l7 -->
<g id="edge6" class="edge"><title>l6&#45;&gt;l7</title>
<path fill="none" stroke="black" d="M532.016,-841.941C530.582,-831.247 528.346,-814.578 526.402,-800.084"/>
<polygon fill="black" stroke="black" points="529.852,-799.477 525.053,-790.031 522.914,-800.408 529.852,-799.477"/>
<text text-anchor="middle" x="626" y="-811.4" font-family="Times,serif" font-size="14.00">___bidirectional_lstm_0___bw.w0</text>
</g>
<!-- l7&#45;&gt;l8 -->
<g id="edge8" class="edge"><title>l7&#45;&gt;l8</title>
<path fill="none" stroke="black" d="M486.163,-749.98C466.777,-739.833 443.199,-727.491 424.811,-717.866"/>
<polygon fill="black" stroke="black" points="426.2,-714.643 415.717,-713.106 422.954,-720.844 426.2,-714.643"/>
</g>
<!-- l9 -->
<g id="node10" class="node"><title>l9</title>
<polygon fill="none" stroke="black" points="479,-652 310,-652 310,-628 479,-628 479,-652"/>
<text text-anchor="middle" x="394.5" y="-635.4" font-family="Times,serif" font-size="14.00">__dropout_0__ type=addto</text>
</g>
<!-- l8&#45;&gt;l9 -->
<g id="edge9" class="edge"><title>l8&#45;&gt;l9</title>
<path fill="none" stroke="black" d="M394.5,-688.903C394.5,-681.403 394.5,-671.263 394.5,-662.242"/>
<polygon fill="black" stroke="black" points="398,-662.048 394.5,-652.048 391,-662.048 398,-662.048"/>
</g>
<!-- l10 -->
<g id="node11" class="node"><title>l10</title>
<polygon fill="none" stroke="black" points="398,-576 247,-576 247,-536 398,-536 398,-576"/>
<text text-anchor="start" x="255" y="-559.4" font-family="Times,serif" font-size="14.00">__fc_layer_1__ type=fc</text>
<text text-anchor="middle" x="322.5" y="-543.4" font-family="Times,serif" font-size="14.00">act=sequence_softmax </text>
</g>
<!-- l9&#45;&gt;l10 -->
<g id="edge10" class="edge"><title>l9&#45;&gt;l10</title>
<path fill="none" stroke="black" d="M382.167,-627.779C376.601,-622.539 370.045,-616.119 364.5,-610 357.168,-601.909 349.621,-592.703 342.981,-584.258"/>
<polygon fill="black" stroke="black" points="345.58,-581.897 336.687,-576.138 340.047,-586.186 345.58,-581.897"/>
<text text-anchor="middle" x="388.5" y="-597.4" font-family="Times,serif" font-size="14.00">layer1.w</text>
</g>
<!-- l11 -->
<g id="node12" class="node"><title>l11</title>
<polygon fill="none" stroke="black" points="498.5,-499 290.5,-499 290.5,-475 498.5,-475 498.5,-499"/>
<text text-anchor="middle" x="394.5" y="-482.4" font-family="Times,serif" font-size="14.00">__scaling_layer_0__ type=scaling</text>
</g>
<!-- l9&#45;&gt;l11 -->
<g id="edge12" class="edge"><title>l9&#45;&gt;l11</title>
<path fill="none" stroke="black" d="M403.451,-627.854C407.007,-622.731 410.68,-616.382 412.5,-610 422.414,-575.23 411.415,-533.243 402.78,-508.692"/>
<polygon fill="black" stroke="black" points="406.057,-507.463 399.292,-499.309 399.496,-509.902 406.057,-507.463"/>
</g>
<!-- l10&#45;&gt;l11 -->
<g id="edge11" class="edge"><title>l10&#45;&gt;l11</title>
<path fill="none" stroke="black" d="M342.94,-535.98C353.044,-526.577 365.173,-515.291 375.128,-506.027"/>
<polygon fill="black" stroke="black" points="377.629,-508.481 382.565,-499.106 372.86,-503.356 377.629,-508.481"/>
</g>
<!-- l12 -->
<g id="node13" class="node"><title>l12</title>
<polygon fill="none" stroke="black" points="497.5,-438 291.5,-438 291.5,-398 497.5,-398 497.5,-438"/>
<text text-anchor="start" x="299.5" y="-421.4" font-family="Times,serif" font-size="14.00">__seq_pooling_0__ type=average</text>
<text text-anchor="middle" x="394.5" y="-405.4" font-family="Times,serif" font-size="14.00">act=linear </text>
</g>
<!-- l11&#45;&gt;l12 -->
<g id="edge13" class="edge"><title>l11&#45;&gt;l12</title>
<path fill="none" stroke="black" d="M394.5,-474.936C394.5,-467.699 394.5,-457.876 394.5,-448.481"/>
<polygon fill="black" stroke="black" points="398,-448.216 394.5,-438.216 391,-448.216 398,-448.216"/>
</g>
<!-- l13 -->
<g id="node14" class="node"><title>l13</title>
<polygon fill="none" stroke="black" points="511,-346 278,-346 278,-306 511,-306 511,-346"/>
<text text-anchor="start" x="286" y="-329.4" font-family="Times,serif" font-size="14.00">__fc_layer_2__ type=fc</text>
<text text-anchor="middle" x="394.5" y="-313.4" font-family="Times,serif" font-size="14.00">act=tanh bias=___fc_layer_2__.wbias </text>
</g>
<!-- l12&#45;&gt;l13 -->
<g id="edge14" class="edge"><title>l12&#45;&gt;l13</title>
<path fill="none" stroke="black" d="M394.5,-397.913C394.5,-385.862 394.5,-370.049 394.5,-356.414"/>
<polygon fill="black" stroke="black" points="398,-356.059 394.5,-346.059 391,-356.059 398,-356.059"/>
<text text-anchor="middle" x="452.5" y="-367.4" font-family="Times,serif" font-size="14.00">___fc_layer_2__.w0</text>
</g>
<!-- l14 -->
<g id="node15" class="node"><title>l14</title>
<polygon fill="none" stroke="black" points="511,-254 278,-254 278,-214 511,-214 511,-254"/>
<text text-anchor="start" x="286" y="-237.4" font-family="Times,serif" font-size="14.00">__fc_layer_3__ type=fc</text>
<text text-anchor="middle" x="394.5" y="-221.4" font-family="Times,serif" font-size="14.00">act=tanh bias=___fc_layer_3__.wbias </text>
</g>
<!-- l13&#45;&gt;l14 -->
<g id="edge15" class="edge"><title>l13&#45;&gt;l14</title>
<path fill="none" stroke="black" d="M394.5,-305.913C394.5,-293.862 394.5,-278.049 394.5,-264.414"/>
<polygon fill="black" stroke="black" points="398,-264.059 394.5,-254.059 391,-264.059 398,-264.059"/>
<text text-anchor="middle" x="452.5" y="-275.4" font-family="Times,serif" font-size="14.00">___fc_layer_3__.w0</text>
</g>
<!-- l14&#45;&gt;l15 -->
<g id="edge17" class="edge"><title>l14&#45;&gt;l15</title>
<path fill="none" stroke="black" d="M366.679,-213.98C352.382,-204.205 335.106,-192.394 321.272,-182.936"/>
<polygon fill="black" stroke="black" points="322.975,-179.861 312.745,-177.106 319.024,-185.639 322.975,-179.861"/>
</g>
<!-- l16 -->
<g id="node17" class="node"><title>l16</title>
<polygon fill="none" stroke="black" points="423,-101 170,-101 170,-61 423,-61 423,-101"/>
<text text-anchor="start" x="178" y="-84.4" font-family="Times,serif" font-size="14.00">__fc_layer_4__ type=fc</text>
<text text-anchor="middle" x="296.5" y="-68.4" font-family="Times,serif" font-size="14.00">act=sigmoid bias=___fc_layer_4__.wbias </text>
</g>
<!-- l15&#45;&gt;l16 -->
<g id="edge18" class="edge"><title>l15&#45;&gt;l16</title>
<path fill="none" stroke="black" d="M296.5,-152.941C296.5,-142.247 296.5,-125.578 296.5,-111.084"/>
<polygon fill="black" stroke="black" points="300,-111.031 296.5,-101.031 293,-111.031 300,-111.031"/>
<text text-anchor="middle" x="354.5" y="-122.4" font-family="Times,serif" font-size="14.00">___fc_layer_4__.w0</text>
</g>
<!-- l18 -->
<g id="node19" class="node"><title>l18</title>
<polygon fill="none" stroke="black" points="564.5,-24 310.5,-24 310.5,-0 564.5,-0 564.5,-24"/>
<text text-anchor="middle" x="437.5" y="-7.4" font-family="Times,serif" font-size="14.00">__regression_cost_0__ type=square_error</text>
</g>
<!-- l16&#45;&gt;l18 -->
<g id="edge19" class="edge"><title>l16&#45;&gt;l18</title>
<path fill="none" stroke="black" d="M336.528,-60.9797C358.176,-50.693 384.571,-38.1507 404.944,-28.4699"/>
<polygon fill="black" stroke="black" points="406.598,-31.5592 414.128,-24.106 403.593,-25.2366 406.598,-31.5592"/>
</g>
<!-- l17 -->
<g id="node18" class="node"><title>l17</title>
<polygon fill="none" stroke="black" points="544,-93 441,-93 441,-69 544,-69 544,-93"/>
<text text-anchor="middle" x="492.5" y="-76.4" font-family="Times,serif" font-size="14.00">label type=data</text>
</g>
<!-- l17&#45;&gt;l18 -->
<g id="edge20" class="edge"><title>l17&#45;&gt;l18</title>
<path fill="none" stroke="black" d="M483.418,-68.9363C475.267,-59.0067 463.12,-44.21 453.367,-32.3288"/>
<polygon fill="black" stroke="black" points="455.83,-29.8126 446.779,-24.3041 450.419,-34.2541 455.83,-29.8126"/>
</g>
</g>
</svg>
