<?xml version="1.0" encoding="UTF-8" standalone="no"?>
<!DOCTYPE svg PUBLIC "-//W3C//DTD SVG 1.1//EN"
 "http://www.w3.org/Graphics/SVG/1.1/DTD/svg11.dtd">
<!-- Generated by graphviz version 2.38.0 (20140413.2041)
 -->
<!-- Title: graphname Pages: 1 -->
<svg width="769pt" height="644pt"
 viewBox="0.00 0.00 769.00 644.00" xmlns="http://www.w3.org/2000/svg" xmlns:xlink="http://www.w3.org/1999/xlink">
<g id="graph0" class="graph" transform="scale(1 1) rotate(0) translate(4 640)">
<title>graphname</title>
<polygon fill="white" stroke="none" points="-4,4 -4,-640 765,-640 765,4 -4,4"/>
<!-- l0 -->
<g id="node1" class="node"><title>l0</title>
<polygon fill="none" stroke="black" points="452.5,-338 308.5,-338 308.5,-314 452.5,-314 452.5,-338"/>
<text text-anchor="middle" x="380.5" y="-321.4" font-family="Times,serif" font-size="14.00">img_feature type=data</text>
</g>
<!-- l1 -->
<g id="node2" class="node"><title>l1</title>
<polygon fill="none" stroke="black" points="497,-254 264,-254 264,-214 497,-214 497,-254"/>
<text text-anchor="start" x="272" y="-237.4" font-family="Times,serif" font-size="14.00">__fc_layer_0__ type=fc</text>
<text text-anchor="middle" x="380.5" y="-221.4" font-family="Times,serif" font-size="14.00">act=tanh bias=___fc_layer_0__.wbias </text>
</g>
<!-- l0&#45;&gt;l1 -->
<g id="edge1" class="edge"><title>l0&#45;&gt;l1</title>
<path fill="none" stroke="black" d="M380.5,-313.964C380.5,-301.681 380.5,-281.326 380.5,-264.359"/>
<polygon fill="black" stroke="black" points="384,-264.335 380.5,-254.335 377,-264.335 384,-264.335"/>
<text text-anchor="middle" x="438.5" y="-275.4" font-family="Times,serif" font-size="14.00">___fc_layer_0__.w0</text>
</g>
<!-- l8 -->
<g id="node9" class="node"><title>l8</title>
<polygon fill="none" stroke="black" points="344,-177 185,-177 185,-153 344,-153 344,-177"/>
<text text-anchor="middle" x="264.5" y="-160.4" font-family="Times,serif" font-size="14.00">__cos_sim_0__ type=cos</text>
</g>
<!-- l1&#45;&gt;l8 -->
<g id="edge7" class="edge"><title>l1&#45;&gt;l8</title>
<path fill="none" stroke="black" d="M347.569,-213.98C330.162,-203.926 309.025,-191.717 292.429,-182.131"/>
<polygon fill="black" stroke="black" points="294.138,-179.077 283.728,-177.106 290.637,-185.138 294.138,-179.077"/>
</g>
<!-- l16 -->
<g id="node17" class="node"><title>l16</title>
<polygon fill="none" stroke="black" points="525,-177 366,-177 366,-153 525,-153 525,-177"/>
<text text-anchor="middle" x="445.5" y="-160.4" font-family="Times,serif" font-size="14.00">__cos_sim_1__ type=cos</text>
</g>
<!-- l1&#45;&gt;l16 -->
<g id="edge15" class="edge"><title>l1&#45;&gt;l16</title>
<path fill="none" stroke="black" d="M398.953,-213.98C407.984,-204.67 418.807,-193.514 427.744,-184.303"/>
<polygon fill="black" stroke="black" points="430.274,-186.72 434.726,-177.106 425.25,-181.846 430.274,-186.72"/>
</g>
<!-- l2 -->
<g id="node3" class="node"><title>l2</title>
<polygon fill="none" stroke="black" points="226,-636 101,-636 101,-612 226,-612 226,-636"/>
<text text-anchor="middle" x="163.5" y="-619.4" font-family="Times,serif" font-size="14.00">pos_title type=data</text>
</g>
<!-- l3 -->
<g id="node4" class="node"><title>l3</title>
<polygon fill="none" stroke="black" points="259,-560 68,-560 68,-536 259,-536 259,-560"/>
<text text-anchor="middle" x="163.5" y="-543.4" font-family="Times,serif" font-size="14.00">__embedding_0__ type=mixed</text>
</g>
<!-- l2&#45;&gt;l3 -->
<g id="edge2" class="edge"><title>l2&#45;&gt;l3</title>
<path fill="none" stroke="black" d="M163.5,-611.761C163.5,-600.895 163.5,-584.144 163.5,-570.68"/>
<polygon fill="black" stroke="black" points="167,-570.345 163.5,-560.345 160,-570.345 167,-570.345"/>
<text text-anchor="middle" x="184" y="-581.4" font-family="Times,serif" font-size="14.00">layer.w</text>
</g>
<!-- l4 -->
<g id="node5" class="node"><title>l4</title>
<polygon fill="none" stroke="black" points="327,-499 2.84217e-14,-499 2.84217e-14,-475 327,-475 327,-499"/>
<text text-anchor="middle" x="163.5" y="-482.4" font-family="Times,serif" font-size="14.00">__sequence_conv_pooling_0___conv_proj type=mixed</text>
</g>
<!-- l3&#45;&gt;l4 -->
<g id="edge3" class="edge"><title>l3&#45;&gt;l4</title>
<path fill="none" stroke="black" d="M163.5,-535.903C163.5,-528.403 163.5,-518.263 163.5,-509.242"/>
<polygon fill="black" stroke="black" points="167,-509.048 163.5,-499.048 160,-509.048 167,-509.048"/>
</g>
<!-- l5 -->
<g id="node6" class="node"><title>l5</title>
<polygon fill="none" stroke="black" points="309,-423 18,-423 18,-383 309,-383 309,-423"/>
<text text-anchor="start" x="26" y="-406.4" font-family="Times,serif" font-size="14.00">__sequence_conv_pooling_0___conv_fc type=fc</text>
<text text-anchor="middle" x="163.5" y="-390.4" font-family="Times,serif" font-size="14.00">act=sigmoid bias=layer0.bias </text>
</g>
<!-- l4&#45;&gt;l5 -->
<g id="edge4" class="edge"><title>l4&#45;&gt;l5</title>
<path fill="none" stroke="black" d="M163.5,-474.941C163.5,-464.247 163.5,-447.578 163.5,-433.084"/>
<polygon fill="black" stroke="black" points="167,-433.031 163.5,-423.031 160,-433.031 167,-433.031"/>
<text text-anchor="middle" x="187.5" y="-444.4" font-family="Times,serif" font-size="14.00">layer0.w</text>
</g>
<!-- l6 -->
<g id="node7" class="node"><title>l6</title>
<polygon fill="none" stroke="black" points="290,-346 37,-346 37,-306 290,-306 290,-346"/>
<text text-anchor="start" x="45" y="-329.4" font-family="Times,serif" font-size="14.00">__sequence_conv_pooling_0__ type=max</text>
<text text-anchor="middle" x="163.5" y="-313.4" font-family="Times,serif" font-size="14.00">act=linear </text>
</g>
<!-- l5&#45;&gt;l6 -->
<g id="edge5" class="edge"><title>l5&#45;&gt;l6</title>
<path fill="none" stroke="black" d="M163.5,-382.686C163.5,-374.725 163.5,-365.321 163.5,-356.53"/>
<polygon fill="black" stroke="black" points="167,-356.249 163.5,-346.249 160,-356.249 167,-356.249"/>
</g>
<!-- l7 -->
<g id="node8" class="node"><title>l7</title>
<polygon fill="none" stroke="black" points="245.5,-254 83.5,-254 83.5,-214 245.5,-214 245.5,-254"/>
<text text-anchor="start" x="91.5" y="-237.4" font-family="Times,serif" font-size="14.00">__fc_layer_1__ type=fc</text>
<text text-anchor="middle" x="164.5" y="-221.4" font-family="Times,serif" font-size="14.00">act=tanh bias=layer1.bias </text>
</g>
<!-- l6&#45;&gt;l7 -->
<g id="edge6" class="edge"><title>l6&#45;&gt;l7</title>
<path fill="none" stroke="black" d="M163.712,-305.913C163.846,-293.862 164.022,-278.049 164.173,-264.414"/>
<polygon fill="black" stroke="black" points="167.677,-264.097 164.288,-254.059 160.677,-264.02 167.677,-264.097"/>
<text text-anchor="middle" x="188.5" y="-275.4" font-family="Times,serif" font-size="14.00">layer1.w</text>
</g>
<!-- l7&#45;&gt;l8 -->
<g id="edge8" class="edge"><title>l7&#45;&gt;l8</title>
<path fill="none" stroke="black" d="M192.889,-213.98C207.478,-204.205 225.106,-192.394 239.222,-182.936"/>
<polygon fill="black" stroke="black" points="241.564,-185.58 247.924,-177.106 237.668,-179.764 241.564,-185.58"/>
</g>
<!-- l9 -->
<g id="node10" class="node"><title>l9</title>
<polygon fill="none" stroke="black" points="346,-101 183,-101 183,-61 346,-61 346,-101"/>
<text text-anchor="start" x="191" y="-84.4" font-family="Times,serif" font-size="14.00">__fc_layer_2__ type=fc</text>
<text text-anchor="middle" x="264.5" y="-68.4" font-family="Times,serif" font-size="14.00">act=tanh bias=layer2.bias </text>
</g>
<!-- l8&#45;&gt;l9 -->
<g id="edge9" class="edge"><title>l8&#45;&gt;l9</title>
<path fill="none" stroke="black" d="M264.5,-152.941C264.5,-142.247 264.5,-125.578 264.5,-111.084"/>
<polygon fill="black" stroke="black" points="268,-111.031 264.5,-101.031 261,-111.031 268,-111.031"/>
<text text-anchor="middle" x="288.5" y="-122.4" font-family="Times,serif" font-size="14.00">layer2.w</text>
</g>
<!-- l19 -->
<g id="node20" class="node"><title>l19</title>
<polygon fill="none" stroke="black" points="545.5,-24 345.5,-24 345.5,-0 545.5,-0 545.5,-24"/>
<text text-anchor="middle" x="445.5" y="-7.4" font-family="Times,serif" font-size="14.00">__rank_cost_0__ type=rank&#45;cost</text>
</g>
<!-- l9&#45;&gt;l19 -->
<g id="edge18" class="edge"><title>l9&#45;&gt;l19</title>
<path fill="none" stroke="black" d="M315.883,-60.9797C344.52,-50.3794 379.627,-37.384 406.078,-27.5926"/>
<polygon fill="black" stroke="black" points="407.597,-30.7624 415.76,-24.0086 405.167,-24.1978 407.597,-30.7624"/>
</g>
<!-- l10 -->
<g id="node11" class="node"><title>l10</title>
<polygon fill="none" stroke="black" points="659.5,-636 535.5,-636 535.5,-612 659.5,-612 659.5,-636"/>
<text text-anchor="middle" x="597.5" y="-619.4" font-family="Times,serif" font-size="14.00">neg_title type=data</text>
</g>
<!-- l11 -->
<g id="node12" class="node"><title>l11</title>
<polygon fill="none" stroke="black" points="693,-560 502,-560 502,-536 693,-536 693,-560"/>
<text text-anchor="middle" x="597.5" y="-543.4" font-family="Times,serif" font-size="14.00">__embedding_1__ type=mixed</text>
</g>
<!-- l10&#45;&gt;l11 -->
<g id="edge10" class="edge"><title>l10&#45;&gt;l11</title>
<path fill="none" stroke="black" d="M597.5,-611.761C597.5,-600.895 597.5,-584.144 597.5,-570.68"/>
<polygon fill="black" stroke="black" points="601,-570.345 597.5,-560.345 594,-570.345 601,-570.345"/>
<text text-anchor="middle" x="618" y="-581.4" font-family="Times,serif" font-size="14.00">layer.w</text>
</g>
<!-- l12 -->
<g id="node13" class="node"><title>l12</title>
<polygon fill="none" stroke="black" points="761,-499 434,-499 434,-475 761,-475 761,-499"/>
<text text-anchor="middle" x="597.5" y="-482.4" font-family="Times,serif" font-size="14.00">__sequence_conv_pooling_1___conv_proj type=mixed</text>
</g>
<!-- l11&#45;&gt;l12 -->
<g id="edge11" class="edge"><title>l11&#45;&gt;l12</title>
<path fill="none" stroke="black" d="M597.5,-535.903C597.5,-528.403 597.5,-518.263 597.5,-509.242"/>
<polygon fill="black" stroke="black" points="601,-509.048 597.5,-499.048 594,-509.048 601,-509.048"/>
</g>
<!-- l13 -->
<g id="node14" class="node"><title>l13</title>
<polygon fill="none" stroke="black" points="743,-423 452,-423 452,-383 743,-383 743,-423"/>
<text text-anchor="start" x="460" y="-406.4" font-family="Times,serif" font-size="14.00">__sequence_conv_pooling_1___conv_fc type=fc</text>
<text text-anchor="middle" x="597.5" y="-390.4" font-family="Times,serif" font-size="14.00">act=sigmoid bias=layer0.bias </text>
</g>
<!-- l12&#45;&gt;l13 -->
<g id="edge12" class="edge"><title>l12&#45;&gt;l13</title>
<path fill="none" stroke="black" d="M597.5,-474.941C597.5,-464.247 597.5,-447.578 597.5,-433.084"/>
<polygon fill="black" stroke="black" points="601,-433.031 597.5,-423.031 594,-433.031 601,-433.031"/>
<text text-anchor="middle" x="621.5" y="-444.4" font-family="Times,serif" font-size="14.00">layer0.w</text>
</g>
<!-- l14 -->
<g id="node15" class="node"><title>l14</title>
<polygon fill="none" stroke="black" points="724,-346 471,-346 471,-306 724,-306 724,-346"/>
<text text-anchor="start" x="479" y="-329.4" font-family="Times,serif" font-size="14.00">__sequence_conv_pooling_1__ type=max</text>
<text text-anchor="middle" x="597.5" y="-313.4" font-family="Times,serif" font-size="14.00">act=linear </text>
</g>
<!-- l13&#45;&gt;l14 -->
<g id="edge13" class="edge"><title>l13&#45;&gt;l14</title>
<path fill="none" stroke="black" d="M597.5,-382.686C597.5,-374.725 597.5,-365.321 597.5,-356.53"/>
<polygon fill="black" stroke="black" points="601,-356.249 597.5,-346.249 594,-356.249 601,-356.249"/>
</g>
<!-- l15 -->
<g id="node16" class="node"><title>l15</title>
<polygon fill="none" stroke="black" points="677.5,-254 515.5,-254 515.5,-214 677.5,-214 677.5,-254"/>
<text text-anchor="start" x="523.5" y="-237.4" font-family="Times,serif" font-size="14.00">__fc_layer_3__ type=fc</text>
<text text-anchor="middle" x="596.5" y="-221.4" font-family="Times,serif" font-size="14.00">act=tanh bias=layer1.bias </text>
</g>
<!-- l14&#45;&gt;l15 -->
<g id="edge14" class="edge"><title>l14&#45;&gt;l15</title>
<path fill="none" stroke="black" d="M597.288,-305.913C597.154,-293.862 596.978,-278.049 596.827,-264.414"/>
<polygon fill="black" stroke="black" points="600.323,-264.02 596.712,-254.059 593.323,-264.097 600.323,-264.02"/>
<text text-anchor="middle" x="620.5" y="-275.4" font-family="Times,serif" font-size="14.00">layer1.w</text>
</g>
<!-- l15&#45;&gt;l16 -->
<g id="edge16" class="edge"><title>l15&#45;&gt;l16</title>
<path fill="none" stroke="black" d="M553.633,-213.98C530.24,-203.6 501.671,-190.924 479.774,-181.208"/>
<polygon fill="black" stroke="black" points="481.09,-177.963 470.53,-177.106 478.251,-184.361 481.09,-177.963"/>
</g>
<!-- l17 -->
<g id="node18" class="node"><title>l17</title>
<polygon fill="none" stroke="black" points="527,-101 364,-101 364,-61 527,-61 527,-101"/>
<text text-anchor="start" x="372" y="-84.4" font-family="Times,serif" font-size="14.00">__fc_layer_4__ type=fc</text>
<text text-anchor="middle" x="445.5" y="-68.4" font-family="Times,serif" font-size="14.00">act=tanh bias=layer2.bias </text>
</g>
<!-- l16&#45;&gt;l17 -->
<g id="edge17" class="edge"><title>l16&#45;&gt;l17</title>
<path fill="none" stroke="black" d="M445.5,-152.941C445.5,-142.247 445.5,-125.578 445.5,-111.084"/>
<polygon fill="black" stroke="black" points="449,-111.031 445.5,-101.031 442,-111.031 449,-111.031"/>
<text text-anchor="middle" x="469.5" y="-122.4" font-family="Times,serif" font-size="14.00">layer2.w</text>
</g>
<!-- l17&#45;&gt;l19 -->
<g id="edge19" class="edge"><title>l17&#45;&gt;l19</title>
<path fill="none" stroke="black" d="M445.5,-60.9797C445.5,-52.6014 445.5,-42.7268 445.5,-34.1206"/>
<polygon fill="black" stroke="black" points="449,-34.1059 445.5,-24.106 442,-34.106 449,-34.1059"/>
</g>
<!-- l18 -->
<g id="node19" class="node"><title>l18</title>
<polygon fill="none" stroke="black" points="648,-93 545,-93 545,-69 648,-69 648,-93"/>
<text text-anchor="middle" x="596.5" y="-76.4" font-family="Times,serif" font-size="14.00">label type=data</text>
</g>
<!-- l18&#45;&gt;l19 -->
<g id="edge20" class="edge"><title>l18&#45;&gt;l19</title>
<path fill="none" stroke="black" d="M571.565,-68.9363C546.538,-57.8316 507.792,-40.6395 479.86,-28.2459"/>
<polygon fill="black" stroke="black" points="481.032,-24.9367 470.472,-24.0801 478.193,-31.3352 481.032,-24.9367"/>
</g>
</g>
</svg>
