<?xml version="1.0" encoding="UTF-8" standalone="no"?>
<!DOCTYPE svg PUBLIC "-//W3C//DTD SVG 1.1//EN"
 "http://www.w3.org/Graphics/SVG/1.1/DTD/svg11.dtd">
<!-- Generated by graphviz version 2.38.0 (20140413.2041)
 -->
<!-- Title: graphname Pages: 1 -->
<svg width="1543pt" height="781pt"
 viewBox="0.00 0.00 1542.50 781.00" xmlns="http://www.w3.org/2000/svg" xmlns:xlink="http://www.w3.org/1999/xlink">
<g id="graph0" class="graph" transform="scale(1 1) rotate(0) translate(4 777)">
<title>graphname</title>
<polygon fill="white" stroke="none" points="-4,4 -4,-777 1538.5,-777 1538.5,4 -4,4"/>
<!-- l0 -->
<g id="node1" class="node"><title>l0</title>
<polygon fill="none" stroke="black" points="785.5,-330 641.5,-330 641.5,-306 785.5,-306 785.5,-330"/>
<text text-anchor="middle" x="713.5" y="-313.4" font-family="Times,serif" font-size="14.00">img_feature type=data</text>
</g>
<!-- l1 -->
<g id="node2" class="node"><title>l1</title>
<polygon fill="none" stroke="black" points="830,-254 597,-254 597,-214 830,-214 830,-254"/>
<text text-anchor="start" x="605" y="-237.4" font-family="Times,serif" font-size="14.00">__fc_layer_0__ type=fc</text>
<text text-anchor="middle" x="713.5" y="-221.4" font-family="Times,serif" font-size="14.00">act=tanh bias=___fc_layer_0__.wbias </text>
</g>
<!-- l0&#45;&gt;l1 -->
<g id="edge1" class="edge"><title>l0&#45;&gt;l1</title>
<path fill="none" stroke="black" d="M713.5,-305.941C713.5,-295.247 713.5,-278.578 713.5,-264.084"/>
<polygon fill="black" stroke="black" points="717,-264.031 713.5,-254.031 710,-264.031 717,-264.031"/>
<text text-anchor="middle" x="771.5" y="-275.4" font-family="Times,serif" font-size="14.00">___fc_layer_0__.w0</text>
</g>
<!-- l13 -->
<g id="node14" class="node"><title>l13</title>
<polygon fill="none" stroke="black" points="677,-177 518,-177 518,-153 677,-153 677,-177"/>
<text text-anchor="middle" x="597.5" y="-160.4" font-family="Times,serif" font-size="14.00">__cos_sim_0__ type=cos</text>
</g>
<!-- l1&#45;&gt;l13 -->
<g id="edge13" class="edge"><title>l1&#45;&gt;l13</title>
<path fill="none" stroke="black" d="M680.569,-213.98C663.162,-203.926 642.025,-191.717 625.429,-182.131"/>
<polygon fill="black" stroke="black" points="627.138,-179.077 616.728,-177.106 623.637,-185.138 627.138,-179.077"/>
</g>
<!-- l26 -->
<g id="node27" class="node"><title>l26</title>
<polygon fill="none" stroke="black" points="858,-177 699,-177 699,-153 858,-153 858,-177"/>
<text text-anchor="middle" x="778.5" y="-160.4" font-family="Times,serif" font-size="14.00">__cos_sim_1__ type=cos</text>
</g>
<!-- l1&#45;&gt;l26 -->
<g id="edge27" class="edge"><title>l1&#45;&gt;l26</title>
<path fill="none" stroke="black" d="M731.953,-213.98C740.984,-204.67 751.807,-193.514 760.744,-184.303"/>
<polygon fill="black" stroke="black" points="763.274,-186.72 767.726,-177.106 758.25,-181.846 763.274,-186.72"/>
</g>
<!-- l2 -->
<g id="node3" class="node"><title>l2</title>
<polygon fill="none" stroke="black" points="388,-773 263,-773 263,-749 388,-749 388,-773"/>
<text text-anchor="middle" x="325.5" y="-756.4" font-family="Times,serif" font-size="14.00">pos_title type=data</text>
</g>
<!-- l3 -->
<g id="node4" class="node"><title>l3</title>
<polygon fill="none" stroke="black" points="421,-697 230,-697 230,-673 421,-673 421,-697"/>
<text text-anchor="middle" x="325.5" y="-680.4" font-family="Times,serif" font-size="14.00">__embedding_0__ type=mixed</text>
</g>
<!-- l2&#45;&gt;l3 -->
<g id="edge2" class="edge"><title>l2&#45;&gt;l3</title>
<path fill="none" stroke="black" d="M325.5,-748.761C325.5,-737.895 325.5,-721.144 325.5,-707.68"/>
<polygon fill="black" stroke="black" points="329,-707.345 325.5,-697.345 322,-707.345 329,-707.345"/>
<text text-anchor="middle" x="346" y="-718.4" font-family="Times,serif" font-size="14.00">layer.w</text>
</g>
<!-- l4 -->
<g id="node5" class="node"><title>l4</title>
<polygon fill="none" stroke="black" points="343,-621 2.84217e-14,-621 2.84217e-14,-597 343,-597 343,-621"/>
<text text-anchor="middle" x="171.5" y="-604.4" font-family="Times,serif" font-size="14.00">lstm_transform___bidirectional_lstm_0___fw type=mixed</text>
</g>
<!-- l3&#45;&gt;l4 -->
<g id="edge3" class="edge"><title>l3&#45;&gt;l4</title>
<path fill="none" stroke="black" d="M236.62,-672.903C223.416,-668.675 210.551,-662.893 199.5,-655 190.904,-648.861 184.387,-639.179 179.813,-630.366"/>
<polygon fill="black" stroke="black" points="182.857,-628.612 175.467,-621.02 176.51,-631.563 182.857,-628.612"/>
<text text-anchor="middle" x="342" y="-642.4" font-family="Times,serif" font-size="14.00">_lstm_transform___bidirectional_lstm_0___fw.w0</text>
</g>
<!-- l6 -->
<g id="node7" class="node"><title>l6</title>
<polygon fill="none" stroke="black" points="706,-621 361,-621 361,-597 706,-597 706,-621"/>
<text text-anchor="middle" x="533.5" y="-604.4" font-family="Times,serif" font-size="14.00">lstm_transform___bidirectional_lstm_0___bw type=mixed</text>
</g>
<!-- l3&#45;&gt;l6 -->
<g id="edge5" class="edge"><title>l3&#45;&gt;l6</title>
<path fill="none" stroke="black" d="M421.209,-675.492C442.777,-671.165 465.03,-664.686 484.5,-655 497.137,-648.713 508.875,-638.174 517.692,-628.876"/>
<polygon fill="black" stroke="black" points="520.548,-630.935 524.639,-621.161 515.346,-626.251 520.548,-630.935"/>
<text text-anchor="middle" x="651" y="-642.4" font-family="Times,serif" font-size="14.00">_lstm_transform___bidirectional_lstm_0___bw.w0</text>
</g>
<!-- l5 -->
<g id="node6" class="node"><title>l5</title>
<polygon fill="none" stroke="black" points="344.5,-545 34.5,-545 34.5,-505 344.5,-505 344.5,-545"/>
<text text-anchor="start" x="42.5" y="-528.4" font-family="Times,serif" font-size="14.00">__bidirectional_lstm_0___fw type=lstmemory</text>
<text text-anchor="middle" x="189.5" y="-512.4" font-family="Times,serif" font-size="14.00">act=tanh bias=___bidirectional_lstm_0___fw.wbias </text>
</g>
<!-- l4&#45;&gt;l5 -->
<g id="edge4" class="edge"><title>l4&#45;&gt;l5</title>
<path fill="none" stroke="black" d="M173.928,-596.941C176.275,-586.247 179.934,-569.578 183.116,-555.084"/>
<polygon fill="black" stroke="black" points="186.597,-555.549 185.322,-545.031 179.76,-554.048 186.597,-555.549"/>
<text text-anchor="middle" x="278" y="-566.4" font-family="Times,serif" font-size="14.00">___bidirectional_lstm_0___fw.w0</text>
</g>
<!-- l8 -->
<g id="node9" class="node"><title>l8</title>
<polygon fill="none" stroke="black" points="341.5,-468 43.5,-468 43.5,-428 341.5,-428 341.5,-468"/>
<text text-anchor="start" x="51.5" y="-451.4" font-family="Times,serif" font-size="14.00">__bidirectional_lstm_0___fw_last type=seqlastins</text>
<text text-anchor="middle" x="192.5" y="-435.4" font-family="Times,serif" font-size="14.00">act=linear </text>
</g>
<!-- l5&#45;&gt;l8 -->
<g id="edge7" class="edge"><title>l5&#45;&gt;l8</title>
<path fill="none" stroke="black" d="M190.273,-504.686C190.591,-496.725 190.967,-487.321 191.319,-478.53"/>
<polygon fill="black" stroke="black" points="194.827,-478.381 191.73,-468.249 187.833,-478.101 194.827,-478.381"/>
</g>
<!-- l7 -->
<g id="node8" class="node"><title>l7</title>
<polygon fill="none" stroke="black" points="678.5,-545 366.5,-545 366.5,-505 678.5,-505 678.5,-545"/>
<text text-anchor="start" x="374.5" y="-528.4" font-family="Times,serif" font-size="14.00">__bidirectional_lstm_0___bw type=lstmemory &lt;==</text>
<text text-anchor="middle" x="522.5" y="-512.4" font-family="Times,serif" font-size="14.00">act=tanh bias=___bidirectional_lstm_0___bw.wbias </text>
</g>
<!-- l6&#45;&gt;l7 -->
<g id="edge6" class="edge"><title>l6&#45;&gt;l7</title>
<path fill="none" stroke="black" d="M532.016,-596.941C530.582,-586.247 528.346,-569.578 526.402,-555.084"/>
<polygon fill="black" stroke="black" points="529.852,-554.477 525.053,-545.031 522.914,-555.408 529.852,-554.477"/>
<text text-anchor="middle" x="627" y="-566.4" font-family="Times,serif" font-size="14.00">___bidirectional_lstm_0___bw.w0</text>
</g>
<!-- l9 -->
<g id="node10" class="node"><title>l9</title>
<polygon fill="none" stroke="black" points="660.5,-468 360.5,-468 360.5,-428 660.5,-428 660.5,-468"/>
<text text-anchor="start" x="368.5" y="-451.4" font-family="Times,serif" font-size="14.00">__bidirectional_lstm_0___bw_last type=seqlastins</text>
<text text-anchor="middle" x="510.5" y="-435.4" font-family="Times,serif" font-size="14.00">act=linear </text>
</g>
<!-- l7&#45;&gt;l9 -->
<g id="edge8" class="edge"><title>l7&#45;&gt;l9</title>
<path fill="none" stroke="black" d="M519.41,-504.686C518.122,-496.637 516.598,-487.114 515.178,-478.24"/>
<polygon fill="black" stroke="black" points="518.616,-477.57 513.58,-468.249 511.704,-478.676 518.616,-477.57"/>
</g>
<!-- l10 -->
<g id="node11" class="node"><title>l10</title>
<polygon fill="none" stroke="black" points="579,-391 346,-391 346,-367 579,-367 579,-391"/>
<text text-anchor="middle" x="462.5" y="-374.4" font-family="Times,serif" font-size="14.00">__bidirectional_lstm_0__ type=concat</text>
</g>
<!-- l8&#45;&gt;l10 -->
<g id="edge9" class="edge"><title>l8&#45;&gt;l10</title>
<path fill="none" stroke="black" d="M269.149,-427.98C313.56,-416.959 368.404,-403.35 408.325,-393.443"/>
<polygon fill="black" stroke="black" points="409.274,-396.814 418.137,-391.009 407.588,-390.02 409.274,-396.814"/>
</g>
<!-- l9&#45;&gt;l10 -->
<g id="edge10" class="edge"><title>l9&#45;&gt;l10</title>
<path fill="none" stroke="black" d="M496.874,-427.98C490.471,-419.043 482.849,-408.404 476.411,-399.417"/>
<polygon fill="black" stroke="black" points="479.126,-397.197 470.457,-391.106 473.435,-401.273 479.126,-397.197"/>
</g>
<!-- l11 -->
<g id="node12" class="node"><title>l11</title>
<polygon fill="none" stroke="black" points="547,-330 378,-330 378,-306 547,-306 547,-330"/>
<text text-anchor="middle" x="462.5" y="-313.4" font-family="Times,serif" font-size="14.00">__dropout_0__ type=addto</text>
</g>
<!-- l10&#45;&gt;l11 -->
<g id="edge11" class="edge"><title>l10&#45;&gt;l11</title>
<path fill="none" stroke="black" d="M462.5,-366.903C462.5,-359.403 462.5,-349.263 462.5,-340.242"/>
<polygon fill="black" stroke="black" points="466,-340.048 462.5,-330.048 459,-340.048 466,-340.048"/>
</g>
<!-- l12 -->
<g id="node13" class="node"><title>l12</title>
<polygon fill="none" stroke="black" points="579,-254 346,-254 346,-214 579,-214 579,-254"/>
<text text-anchor="start" x="354" y="-237.4" font-family="Times,serif" font-size="14.00">__fc_layer_1__ type=fc</text>
<text text-anchor="middle" x="462.5" y="-221.4" font-family="Times,serif" font-size="14.00">act=tanh bias=___fc_layer_1__.wbias </text>
</g>
<!-- l11&#45;&gt;l12 -->
<g id="edge12" class="edge"><title>l11&#45;&gt;l12</title>
<path fill="none" stroke="black" d="M462.5,-305.941C462.5,-295.247 462.5,-278.578 462.5,-264.084"/>
<polygon fill="black" stroke="black" points="466,-264.031 462.5,-254.031 459,-264.031 466,-264.031"/>
<text text-anchor="middle" x="520.5" y="-275.4" font-family="Times,serif" font-size="14.00">___fc_layer_1__.w0</text>
</g>
<!-- l12&#45;&gt;l13 -->
<g id="edge14" class="edge"><title>l12&#45;&gt;l13</title>
<path fill="none" stroke="black" d="M500.824,-213.98C521.458,-203.74 546.595,-191.264 566.064,-181.601"/>
<polygon fill="black" stroke="black" points="567.721,-184.687 575.122,-177.106 564.609,-178.416 567.721,-184.687"/>
</g>
<!-- l14 -->
<g id="node15" class="node"><title>l14</title>
<polygon fill="none" stroke="black" points="679,-101 516,-101 516,-61 679,-61 679,-101"/>
<text text-anchor="start" x="524" y="-84.4" font-family="Times,serif" font-size="14.00">__fc_layer_2__ type=fc</text>
<text text-anchor="middle" x="597.5" y="-68.4" font-family="Times,serif" font-size="14.00">act=tanh bias=layer2.bias </text>
</g>
<!-- l13&#45;&gt;l14 -->
<g id="edge15" class="edge"><title>l13&#45;&gt;l14</title>
<path fill="none" stroke="black" d="M597.5,-152.941C597.5,-142.247 597.5,-125.578 597.5,-111.084"/>
<polygon fill="black" stroke="black" points="601,-111.031 597.5,-101.031 594,-111.031 601,-111.031"/>
<text text-anchor="middle" x="621.5" y="-122.4" font-family="Times,serif" font-size="14.00">layer2.w</text>
</g>
<!-- l29 -->
<g id="node30" class="node"><title>l29</title>
<polygon fill="none" stroke="black" points="878.5,-24 678.5,-24 678.5,-0 878.5,-0 878.5,-24"/>
<text text-anchor="middle" x="778.5" y="-7.4" font-family="Times,serif" font-size="14.00">__rank_cost_0__ type=rank&#45;cost</text>
</g>
<!-- l14&#45;&gt;l29 -->
<g id="edge30" class="edge"><title>l14&#45;&gt;l29</title>
<path fill="none" stroke="black" d="M648.883,-60.9797C677.52,-50.3794 712.627,-37.384 739.078,-27.5926"/>
<polygon fill="black" stroke="black" points="740.597,-30.7624 748.76,-24.0086 738.167,-24.1978 740.597,-30.7624"/>
</g>
<!-- l15 -->
<g id="node16" class="node"><title>l15</title>
<polygon fill="none" stroke="black" points="1132.5,-773 1008.5,-773 1008.5,-749 1132.5,-749 1132.5,-773"/>
<text text-anchor="middle" x="1070.5" y="-756.4" font-family="Times,serif" font-size="14.00">neg_title type=data</text>
</g>
<!-- l16 -->
<g id="node17" class="node"><title>l16</title>
<polygon fill="none" stroke="black" points="1166,-697 975,-697 975,-673 1166,-673 1166,-697"/>
<text text-anchor="middle" x="1070.5" y="-680.4" font-family="Times,serif" font-size="14.00">__embedding_1__ type=mixed</text>
</g>
<!-- l15&#45;&gt;l16 -->
<g id="edge16" class="edge"><title>l15&#45;&gt;l16</title>
<path fill="none" stroke="black" d="M1070.5,-748.761C1070.5,-737.895 1070.5,-721.144 1070.5,-707.68"/>
<polygon fill="black" stroke="black" points="1074,-707.345 1070.5,-697.345 1067,-707.345 1074,-707.345"/>
<text text-anchor="middle" x="1091" y="-718.4" font-family="Times,serif" font-size="14.00">layer.w</text>
</g>
<!-- l17 -->
<g id="node18" class="node"><title>l17</title>
<polygon fill="none" stroke="black" points="1075,-621 732,-621 732,-597 1075,-597 1075,-621"/>
<text text-anchor="middle" x="903.5" y="-604.4" font-family="Times,serif" font-size="14.00">lstm_transform___bidirectional_lstm_1___fw type=mixed</text>
</g>
<!-- l16&#45;&gt;l17 -->
<g id="edge17" class="edge"><title>l16&#45;&gt;l17</title>
<path fill="none" stroke="black" d="M989.424,-672.968C973.854,-668.774 958.162,-662.987 944.5,-655 933.575,-648.613 923.901,-638.357 916.697,-629.248"/>
<polygon fill="black" stroke="black" points="919.362,-626.966 910.587,-621.029 913.745,-631.143 919.362,-626.966"/>
<text text-anchor="middle" x="1087" y="-642.4" font-family="Times,serif" font-size="14.00">_lstm_transform___bidirectional_lstm_1___fw.w0</text>
</g>
<!-- l19 -->
<g id="node20" class="node"><title>l19</title>
<polygon fill="none" stroke="black" points="1438,-621 1093,-621 1093,-597 1438,-597 1438,-621"/>
<text text-anchor="middle" x="1265.5" y="-604.4" font-family="Times,serif" font-size="14.00">lstm_transform___bidirectional_lstm_1___bw type=mixed</text>
</g>
<!-- l16&#45;&gt;l19 -->
<g id="edge19" class="edge"><title>l16&#45;&gt;l19</title>
<path fill="none" stroke="black" d="M1166.12,-677.877C1188.04,-673.475 1210.47,-666.363 1229.5,-655 1239.68,-648.923 1248.15,-638.829 1254.31,-629.74"/>
<polygon fill="black" stroke="black" points="1257.33,-631.504 1259.68,-621.172 1251.4,-627.787 1257.33,-631.504"/>
<text text-anchor="middle" x="1391" y="-642.4" font-family="Times,serif" font-size="14.00">_lstm_transform___bidirectional_lstm_1___bw.w0</text>
</g>
<!-- l18 -->
<g id="node19" class="node"><title>l18</title>
<polygon fill="none" stroke="black" points="1077.5,-545 767.5,-545 767.5,-505 1077.5,-505 1077.5,-545"/>
<text text-anchor="start" x="775.5" y="-528.4" font-family="Times,serif" font-size="14.00">__bidirectional_lstm_1___fw type=lstmemory</text>
<text text-anchor="middle" x="922.5" y="-512.4" font-family="Times,serif" font-size="14.00">act=tanh bias=___bidirectional_lstm_1___fw.wbias </text>
</g>
<!-- l17&#45;&gt;l18 -->
<g id="edge18" class="edge"><title>l17&#45;&gt;l18</title>
<path fill="none" stroke="black" d="M906.062,-596.941C908.54,-586.247 912.403,-569.578 915.761,-555.084"/>
<polygon fill="black" stroke="black" points="919.243,-555.563 918.09,-545.031 912.423,-553.983 919.243,-555.563"/>
<text text-anchor="middle" x="1011" y="-566.4" font-family="Times,serif" font-size="14.00">___bidirectional_lstm_1___fw.w0</text>
</g>
<!-- l21 -->
<g id="node22" class="node"><title>l21</title>
<polygon fill="none" stroke="black" points="1080.5,-468 782.5,-468 782.5,-428 1080.5,-428 1080.5,-468"/>
<text text-anchor="start" x="790.5" y="-451.4" font-family="Times,serif" font-size="14.00">__bidirectional_lstm_1___fw_last type=seqlastins</text>
<text text-anchor="middle" x="931.5" y="-435.4" font-family="Times,serif" font-size="14.00">act=linear </text>
</g>
<!-- l18&#45;&gt;l21 -->
<g id="edge21" class="edge"><title>l18&#45;&gt;l21</title>
<path fill="none" stroke="black" d="M924.818,-504.686C925.784,-496.637 926.926,-487.114 927.991,-478.24"/>
<polygon fill="black" stroke="black" points="931.474,-478.595 929.19,-468.249 924.524,-477.761 931.474,-478.595"/>
</g>
<!-- l20 -->
<g id="node21" class="node"><title>l20</title>
<polygon fill="none" stroke="black" points="1409.5,-545 1097.5,-545 1097.5,-505 1409.5,-505 1409.5,-545"/>
<text text-anchor="start" x="1105.5" y="-528.4" font-family="Times,serif" font-size="14.00">__bidirectional_lstm_1___bw type=lstmemory &lt;==</text>
<text text-anchor="middle" x="1253.5" y="-512.4" font-family="Times,serif" font-size="14.00">act=tanh bias=___bidirectional_lstm_1___bw.wbias </text>
</g>
<!-- l19&#45;&gt;l20 -->
<g id="edge20" class="edge"><title>l19&#45;&gt;l20</title>
<path fill="none" stroke="black" d="M1263.88,-596.941C1262.32,-586.247 1259.88,-569.578 1257.76,-555.084"/>
<polygon fill="black" stroke="black" points="1261.2,-554.419 1256.29,-545.031 1254.27,-555.433 1261.2,-554.419"/>
<text text-anchor="middle" x="1358" y="-566.4" font-family="Times,serif" font-size="14.00">___bidirectional_lstm_1___bw.w0</text>
</g>
<!-- l22 -->
<g id="node23" class="node"><title>l22</title>
<polygon fill="none" stroke="black" points="1399.5,-468 1099.5,-468 1099.5,-428 1399.5,-428 1399.5,-468"/>
<text text-anchor="start" x="1107.5" y="-451.4" font-family="Times,serif" font-size="14.00">__bidirectional_lstm_1___bw_last type=seqlastins</text>
<text text-anchor="middle" x="1249.5" y="-435.4" font-family="Times,serif" font-size="14.00">act=linear </text>
</g>
<!-- l20&#45;&gt;l22 -->
<g id="edge22" class="edge"><title>l20&#45;&gt;l22</title>
<path fill="none" stroke="black" d="M1252.47,-504.686C1252.04,-496.637 1251.53,-487.114 1251.06,-478.24"/>
<polygon fill="black" stroke="black" points="1254.55,-478.048 1250.53,-468.249 1247.56,-478.421 1254.55,-478.048"/>
</g>
<!-- l23 -->
<g id="node24" class="node"><title>l23</title>
<polygon fill="none" stroke="black" points="1081,-391 848,-391 848,-367 1081,-367 1081,-391"/>
<text text-anchor="middle" x="964.5" y="-374.4" font-family="Times,serif" font-size="14.00">__bidirectional_lstm_1__ type=concat</text>
</g>
<!-- l21&#45;&gt;l23 -->
<g id="edge23" class="edge"><title>l21&#45;&gt;l23</title>
<path fill="none" stroke="black" d="M940.868,-427.98C945.132,-419.322 950.184,-409.067 954.519,-400.264"/>
<polygon fill="black" stroke="black" points="957.751,-401.623 959.03,-391.106 951.472,-398.53 957.751,-401.623"/>
</g>
<!-- l22&#45;&gt;l23 -->
<g id="edge24" class="edge"><title>l22&#45;&gt;l23</title>
<path fill="none" stroke="black" d="M1168.59,-427.98C1121.52,-416.912 1063.33,-403.234 1021.15,-393.318"/>
<polygon fill="black" stroke="black" points="1021.86,-389.89 1011.33,-391.009 1020.26,-396.704 1021.86,-389.89"/>
</g>
<!-- l24 -->
<g id="node25" class="node"><title>l24</title>
<polygon fill="none" stroke="black" points="1049,-330 880,-330 880,-306 1049,-306 1049,-330"/>
<text text-anchor="middle" x="964.5" y="-313.4" font-family="Times,serif" font-size="14.00">__dropout_1__ type=addto</text>
</g>
<!-- l23&#45;&gt;l24 -->
<g id="edge25" class="edge"><title>l23&#45;&gt;l24</title>
<path fill="none" stroke="black" d="M964.5,-366.903C964.5,-359.403 964.5,-349.263 964.5,-340.242"/>
<polygon fill="black" stroke="black" points="968,-340.048 964.5,-330.048 961,-340.048 968,-340.048"/>
</g>
<!-- l25 -->
<g id="node26" class="node"><title>l25</title>
<polygon fill="none" stroke="black" points="1081,-254 848,-254 848,-214 1081,-214 1081,-254"/>
<text text-anchor="start" x="856" y="-237.4" font-family="Times,serif" font-size="14.00">__fc_layer_3__ type=fc</text>
<text text-anchor="middle" x="964.5" y="-221.4" font-family="Times,serif" font-size="14.00">act=tanh bias=___fc_layer_3__.wbias </text>
</g>
<!-- l24&#45;&gt;l25 -->
<g id="edge26" class="edge"><title>l24&#45;&gt;l25</title>
<path fill="none" stroke="black" d="M964.5,-305.941C964.5,-295.247 964.5,-278.578 964.5,-264.084"/>
<polygon fill="black" stroke="black" points="968,-264.031 964.5,-254.031 961,-264.031 968,-264.031"/>
<text text-anchor="middle" x="1022.5" y="-275.4" font-family="Times,serif" font-size="14.00">___fc_layer_3__.w0</text>
</g>
<!-- l25&#45;&gt;l26 -->
<g id="edge28" class="edge"><title>l25&#45;&gt;l26</title>
<path fill="none" stroke="black" d="M911.697,-213.98C882.14,-203.333 845.875,-190.269 818.652,-180.463"/>
<polygon fill="black" stroke="black" points="819.656,-177.105 809.061,-177.009 817.283,-183.691 819.656,-177.105"/>
</g>
<!-- l27 -->
<g id="node28" class="node"><title>l27</title>
<polygon fill="none" stroke="black" points="860,-101 697,-101 697,-61 860,-61 860,-101"/>
<text text-anchor="start" x="705" y="-84.4" font-family="Times,serif" font-size="14.00">__fc_layer_4__ type=fc</text>
<text text-anchor="middle" x="778.5" y="-68.4" font-family="Times,serif" font-size="14.00">act=tanh bias=layer2.bias </text>
</g>
<!-- l26&#45;&gt;l27 -->
<g id="edge29" class="edge"><title>l26&#45;&gt;l27</title>
<path fill="none" stroke="black" d="M778.5,-152.941C778.5,-142.247 778.5,-125.578 778.5,-111.084"/>
<polygon fill="black" stroke="black" points="782,-111.031 778.5,-101.031 775,-111.031 782,-111.031"/>
<text text-anchor="middle" x="802.5" y="-122.4" font-family="Times,serif" font-size="14.00">layer2.w</text>
</g>
<!-- l27&#45;&gt;l29 -->
<g id="edge31" class="edge"><title>l27&#45;&gt;l29</title>
<path fill="none" stroke="black" d="M778.5,-60.9797C778.5,-52.6014 778.5,-42.7268 778.5,-34.1206"/>
<polygon fill="black" stroke="black" points="782,-34.1059 778.5,-24.106 775,-34.106 782,-34.1059"/>
</g>
<!-- l28 -->
<g id="node29" class="node"><title>l28</title>
<polygon fill="none" stroke="black" points="981,-93 878,-93 878,-69 981,-69 981,-93"/>
<text text-anchor="middle" x="929.5" y="-76.4" font-family="Times,serif" font-size="14.00">label type=data</text>
</g>
<!-- l28&#45;&gt;l29 -->
<g id="edge32" class="edge"><title>l28&#45;&gt;l29</title>
<path fill="none" stroke="black" d="M904.565,-68.9363C879.538,-57.8316 840.792,-40.6395 812.86,-28.2459"/>
<polygon fill="black" stroke="black" points="814.032,-24.9367 803.472,-24.0801 811.193,-31.3352 814.032,-24.9367"/>
</g>
</g>
</svg>
