<?xml version="1.0" encoding="UTF-8" standalone="no"?>
<!DOCTYPE svg PUBLIC "-//W3C//DTD SVG 1.1//EN"
 "http://www.w3.org/Graphics/SVG/1.1/DTD/svg11.dtd">
<!-- Generated by graphviz version 2.38.0 (20140413.2041)
 -->
<!-- Title: graphname Pages: 1 -->
<svg width="1610pt" height="1026pt"
 viewBox="0.00 0.00 1609.50 1026.00" xmlns="http://www.w3.org/2000/svg" xmlns:xlink="http://www.w3.org/1999/xlink">
<g id="graph0" class="graph" transform="scale(1 1) rotate(0) translate(4 1022)">
<title>graphname</title>
<polygon fill="white" stroke="none" points="-4,4 -4,-1022 1605.5,-1022 1605.5,4 -4,4"/>
<!-- l0 -->
<g id="node1" class="node"><title>l0</title>
<polygon fill="none" stroke="black" points="807.5,-338 663.5,-338 663.5,-314 807.5,-314 807.5,-338"/>
<text text-anchor="middle" x="735.5" y="-321.4" font-family="Times,serif" font-size="14.00">img_feature type=data</text>
</g>
<!-- l1 -->
<g id="node2" class="node"><title>l1</title>
<polygon fill="none" stroke="black" points="852,-254 619,-254 619,-214 852,-214 852,-254"/>
<text text-anchor="start" x="627" y="-237.4" font-family="Times,serif" font-size="14.00">__fc_layer_0__ type=fc</text>
<text text-anchor="middle" x="735.5" y="-221.4" font-family="Times,serif" font-size="14.00">act=tanh bias=___fc_layer_0__.wbias </text>
</g>
<!-- l0&#45;&gt;l1 -->
<g id="edge1" class="edge"><title>l0&#45;&gt;l1</title>
<path fill="none" stroke="black" d="M735.5,-313.964C735.5,-301.681 735.5,-281.326 735.5,-264.359"/>
<polygon fill="black" stroke="black" points="739,-264.335 735.5,-254.335 732,-264.335 739,-264.335"/>
<text text-anchor="middle" x="793.5" y="-275.4" font-family="Times,serif" font-size="14.00">___fc_layer_0__.w0</text>
</g>
<!-- l15 -->
<g id="node16" class="node"><title>l15</title>
<polygon fill="none" stroke="black" points="652,-177 493,-177 493,-153 652,-153 652,-177"/>
<text text-anchor="middle" x="572.5" y="-160.4" font-family="Times,serif" font-size="14.00">__cos_sim_0__ type=cos</text>
</g>
<!-- l1&#45;&gt;l15 -->
<g id="edge16" class="edge"><title>l1&#45;&gt;l15</title>
<path fill="none" stroke="black" d="M689.227,-213.98C663.748,-203.507 632.581,-190.696 608.864,-180.947"/>
<polygon fill="black" stroke="black" points="610.099,-177.671 599.519,-177.106 607.437,-184.145 610.099,-177.671"/>
</g>
<!-- l30 -->
<g id="node31" class="node"><title>l30</title>
<polygon fill="none" stroke="black" points="923,-177 764,-177 764,-153 923,-153 923,-177"/>
<text text-anchor="middle" x="843.5" y="-160.4" font-family="Times,serif" font-size="14.00">__cos_sim_1__ type=cos</text>
</g>
<!-- l1&#45;&gt;l30 -->
<g id="edge33" class="edge"><title>l1&#45;&gt;l30</title>
<path fill="none" stroke="black" d="M766.16,-213.98C782.216,-204.019 801.681,-191.943 817.067,-182.398"/>
<polygon fill="black" stroke="black" points="818.945,-185.352 825.598,-177.106 815.255,-179.404 818.945,-185.352"/>
</g>
<!-- l2 -->
<g id="node3" class="node"><title>l2</title>
<polygon fill="none" stroke="black" points="429,-1018 304,-1018 304,-994 429,-994 429,-1018"/>
<text text-anchor="middle" x="366.5" y="-1001.4" font-family="Times,serif" font-size="14.00">pos_title type=data</text>
</g>
<!-- l3 -->
<g id="node4" class="node"><title>l3</title>
<polygon fill="none" stroke="black" points="462,-942 271,-942 271,-918 462,-918 462,-942"/>
<text text-anchor="middle" x="366.5" y="-925.4" font-family="Times,serif" font-size="14.00">__embedding_0__ type=mixed</text>
</g>
<!-- l2&#45;&gt;l3 -->
<g id="edge2" class="edge"><title>l2&#45;&gt;l3</title>
<path fill="none" stroke="black" d="M366.5,-993.761C366.5,-982.895 366.5,-966.144 366.5,-952.68"/>
<polygon fill="black" stroke="black" points="370,-952.345 366.5,-942.345 363,-952.345 370,-952.345"/>
<text text-anchor="middle" x="387" y="-963.4" font-family="Times,serif" font-size="14.00">layer.w</text>
</g>
<!-- l4 -->
<g id="node5" class="node"><title>l4</title>
<polygon fill="none" stroke="black" points="343,-866 2.84217e-14,-866 2.84217e-14,-842 343,-842 343,-866"/>
<text text-anchor="middle" x="171.5" y="-849.4" font-family="Times,serif" font-size="14.00">lstm_transform___bidirectional_lstm_0___fw type=mixed</text>
</g>
<!-- l3&#45;&gt;l4 -->
<g id="edge3" class="edge"><title>l3&#45;&gt;l4</title>
<path fill="none" stroke="black" d="M270.924,-922.761C234.65,-918.555 198.848,-911.567 185.5,-900 178.554,-893.981 175.009,-884.581 173.216,-875.925"/>
<polygon fill="black" stroke="black" points="176.679,-875.412 171.789,-866.013 169.75,-876.41 176.679,-875.412"/>
<text text-anchor="middle" x="328" y="-887.4" font-family="Times,serif" font-size="14.00">_lstm_transform___bidirectional_lstm_0___fw.w0</text>
</g>
<!-- l6 -->
<g id="node7" class="node"><title>l6</title>
<polygon fill="none" stroke="black" points="706,-866 361,-866 361,-842 706,-842 706,-866"/>
<text text-anchor="middle" x="533.5" y="-849.4" font-family="Times,serif" font-size="14.00">lstm_transform___bidirectional_lstm_0___bw type=mixed</text>
</g>
<!-- l3&#45;&gt;l6 -->
<g id="edge5" class="edge"><title>l3&#45;&gt;l6</title>
<path fill="none" stroke="black" d="M424.061,-917.957C440.817,-913.582 458.82,-907.709 474.5,-900 488.871,-892.934 503.198,-882.119 514.134,-872.863"/>
<polygon fill="black" stroke="black" points="516.557,-875.393 521.781,-866.176 511.949,-870.124 516.557,-875.393"/>
<text text-anchor="middle" x="643" y="-887.4" font-family="Times,serif" font-size="14.00">_lstm_transform___bidirectional_lstm_0___bw.w0</text>
</g>
<!-- l5 -->
<g id="node6" class="node"><title>l5</title>
<polygon fill="none" stroke="black" points="346.5,-790 36.5,-790 36.5,-750 346.5,-750 346.5,-790"/>
<text text-anchor="start" x="44.5" y="-773.4" font-family="Times,serif" font-size="14.00">__bidirectional_lstm_0___fw type=lstmemory</text>
<text text-anchor="middle" x="191.5" y="-757.4" font-family="Times,serif" font-size="14.00">act=tanh bias=___bidirectional_lstm_0___fw.wbias </text>
</g>
<!-- l4&#45;&gt;l5 -->
<g id="edge4" class="edge"><title>l4&#45;&gt;l5</title>
<path fill="none" stroke="black" d="M174.197,-841.941C176.806,-831.247 180.871,-814.578 184.406,-800.084"/>
<polygon fill="black" stroke="black" points="187.889,-800.576 186.858,-790.031 181.088,-798.917 187.889,-800.576"/>
<text text-anchor="middle" x="279" y="-811.4" font-family="Times,serif" font-size="14.00">___bidirectional_lstm_0___fw.w0</text>
</g>
<!-- l8 -->
<g id="node9" class="node"><title>l8</title>
<polygon fill="none" stroke="black" points="577,-713 344,-713 344,-689 577,-689 577,-713"/>
<text text-anchor="middle" x="460.5" y="-696.4" font-family="Times,serif" font-size="14.00">__bidirectional_lstm_0__ type=concat</text>
</g>
<!-- l5&#45;&gt;l8 -->
<g id="edge7" class="edge"><title>l5&#45;&gt;l8</title>
<path fill="none" stroke="black" d="M267.865,-749.98C312.112,-738.959 366.753,-725.35 406.525,-715.443"/>
<polygon fill="black" stroke="black" points="407.444,-718.822 416.301,-713.009 405.752,-712.029 407.444,-718.822"/>
</g>
<!-- l7 -->
<g id="node8" class="node"><title>l7</title>
<polygon fill="none" stroke="black" points="678.5,-790 366.5,-790 366.5,-750 678.5,-750 678.5,-790"/>
<text text-anchor="start" x="374.5" y="-773.4" font-family="Times,serif" font-size="14.00">__bidirectional_lstm_0___bw type=lstmemory &lt;==</text>
<text text-anchor="middle" x="522.5" y="-757.4" font-family="Times,serif" font-size="14.00">act=tanh bias=___bidirectional_lstm_0___bw.wbias </text>
</g>
<!-- l6&#45;&gt;l7 -->
<g id="edge6" class="edge"><title>l6&#45;&gt;l7</title>
<path fill="none" stroke="black" d="M532.016,-841.941C530.582,-831.247 528.346,-814.578 526.402,-800.084"/>
<polygon fill="black" stroke="black" points="529.852,-799.477 525.053,-790.031 522.914,-800.408 529.852,-799.477"/>
<text text-anchor="middle" x="627" y="-811.4" font-family="Times,serif" font-size="14.00">___bidirectional_lstm_0___bw.w0</text>
</g>
<!-- l7&#45;&gt;l8 -->
<g id="edge8" class="edge"><title>l7&#45;&gt;l8</title>
<path fill="none" stroke="black" d="M504.899,-749.98C496.371,-740.764 486.167,-729.737 477.693,-720.58"/>
<polygon fill="black" stroke="black" points="480.138,-718.068 470.777,-713.106 475,-722.823 480.138,-718.068"/>
</g>
<!-- l9 -->
<g id="node10" class="node"><title>l9</title>
<polygon fill="none" stroke="black" points="545,-652 376,-652 376,-628 545,-628 545,-652"/>
<text text-anchor="middle" x="460.5" y="-635.4" font-family="Times,serif" font-size="14.00">__dropout_0__ type=addto</text>
</g>
<!-- l8&#45;&gt;l9 -->
<g id="edge9" class="edge"><title>l8&#45;&gt;l9</title>
<path fill="none" stroke="black" d="M460.5,-688.903C460.5,-681.403 460.5,-671.263 460.5,-662.242"/>
<polygon fill="black" stroke="black" points="464,-662.048 460.5,-652.048 457,-662.048 464,-662.048"/>
</g>
<!-- l10 -->
<g id="node11" class="node"><title>l10</title>
<polygon fill="none" stroke="black" points="632,-576 481,-576 481,-536 632,-536 632,-576"/>
<text text-anchor="start" x="489" y="-559.4" font-family="Times,serif" font-size="14.00">__fc_layer_1__ type=fc</text>
<text text-anchor="middle" x="556.5" y="-543.4" font-family="Times,serif" font-size="14.00">act=sequence_softmax </text>
</g>
<!-- l9&#45;&gt;l10 -->
<g id="edge10" class="edge"><title>l9&#45;&gt;l10</title>
<path fill="none" stroke="black" d="M473.447,-627.941C486.939,-616.417 508.556,-597.952 526.354,-582.75"/>
<polygon fill="black" stroke="black" points="528.889,-585.188 534.219,-576.031 524.342,-579.865 528.889,-585.188"/>
<text text-anchor="middle" x="535.5" y="-597.4" font-family="Times,serif" font-size="14.00">layer1.w</text>
</g>
<!-- l11 -->
<g id="node12" class="node"><title>l11</title>
<polygon fill="none" stroke="black" points="588.5,-499 380.5,-499 380.5,-475 588.5,-475 588.5,-499"/>
<text text-anchor="middle" x="484.5" y="-482.4" font-family="Times,serif" font-size="14.00">__scaling_layer_0__ type=scaling</text>
</g>
<!-- l9&#45;&gt;l11 -->
<g id="edge12" class="edge"><title>l9&#45;&gt;l11</title>
<path fill="none" stroke="black" d="M461.115,-627.789C462.288,-608.777 465.299,-569.053 471.5,-536 473.179,-527.05 475.681,-517.328 478.043,-508.988"/>
<polygon fill="black" stroke="black" points="481.421,-509.908 480.887,-499.327 474.706,-507.931 481.421,-509.908"/>
</g>
<!-- l10&#45;&gt;l11 -->
<g id="edge11" class="edge"><title>l10&#45;&gt;l11</title>
<path fill="none" stroke="black" d="M536.06,-535.98C525.956,-526.577 513.827,-515.291 503.872,-506.027"/>
<polygon fill="black" stroke="black" points="506.14,-503.356 496.435,-499.106 501.371,-508.481 506.14,-503.356"/>
</g>
<!-- l12 -->
<g id="node13" class="node"><title>l12</title>
<polygon fill="none" stroke="black" points="587.5,-438 381.5,-438 381.5,-398 587.5,-398 587.5,-438"/>
<text text-anchor="start" x="389.5" y="-421.4" font-family="Times,serif" font-size="14.00">__seq_pooling_0__ type=average</text>
<text text-anchor="middle" x="484.5" y="-405.4" font-family="Times,serif" font-size="14.00">act=linear </text>
</g>
<!-- l11&#45;&gt;l12 -->
<g id="edge13" class="edge"><title>l11&#45;&gt;l12</title>
<path fill="none" stroke="black" d="M484.5,-474.936C484.5,-467.699 484.5,-457.876 484.5,-448.481"/>
<polygon fill="black" stroke="black" points="488,-448.216 484.5,-438.216 481,-448.216 488,-448.216"/>
</g>
<!-- l13 -->
<g id="node14" class="node"><title>l13</title>
<polygon fill="none" stroke="black" points="601,-346 368,-346 368,-306 601,-306 601,-346"/>
<text text-anchor="start" x="376" y="-329.4" font-family="Times,serif" font-size="14.00">__fc_layer_2__ type=fc</text>
<text text-anchor="middle" x="484.5" y="-313.4" font-family="Times,serif" font-size="14.00">act=tanh bias=___fc_layer_2__.wbias </text>
</g>
<!-- l12&#45;&gt;l13 -->
<g id="edge14" class="edge"><title>l12&#45;&gt;l13</title>
<path fill="none" stroke="black" d="M484.5,-397.913C484.5,-385.862 484.5,-370.049 484.5,-356.414"/>
<polygon fill="black" stroke="black" points="488,-356.059 484.5,-346.059 481,-356.059 488,-356.059"/>
<text text-anchor="middle" x="542.5" y="-367.4" font-family="Times,serif" font-size="14.00">___fc_layer_2__.w0</text>
</g>
<!-- l14 -->
<g id="node15" class="node"><title>l14</title>
<polygon fill="none" stroke="black" points="601,-254 368,-254 368,-214 601,-214 601,-254"/>
<text text-anchor="start" x="376" y="-237.4" font-family="Times,serif" font-size="14.00">__fc_layer_3__ type=fc</text>
<text text-anchor="middle" x="484.5" y="-221.4" font-family="Times,serif" font-size="14.00">act=tanh bias=___fc_layer_3__.wbias </text>
</g>
<!-- l13&#45;&gt;l14 -->
<g id="edge15" class="edge"><title>l13&#45;&gt;l14</title>
<path fill="none" stroke="black" d="M484.5,-305.913C484.5,-293.862 484.5,-278.049 484.5,-264.414"/>
<polygon fill="black" stroke="black" points="488,-264.059 484.5,-254.059 481,-264.059 488,-264.059"/>
<text text-anchor="middle" x="542.5" y="-275.4" font-family="Times,serif" font-size="14.00">___fc_layer_3__.w0</text>
</g>
<!-- l14&#45;&gt;l15 -->
<g id="edge17" class="edge"><title>l14&#45;&gt;l15</title>
<path fill="none" stroke="black" d="M509.482,-213.98C522.198,-204.298 537.538,-192.618 549.9,-183.207"/>
<polygon fill="black" stroke="black" points="552.077,-185.948 557.913,-177.106 547.836,-180.379 552.077,-185.948"/>
</g>
<!-- l16 -->
<g id="node17" class="node"><title>l16</title>
<polygon fill="none" stroke="black" points="699,-101 446,-101 446,-61 699,-61 699,-101"/>
<text text-anchor="start" x="454" y="-84.4" font-family="Times,serif" font-size="14.00">__fc_layer_4__ type=fc</text>
<text text-anchor="middle" x="572.5" y="-68.4" font-family="Times,serif" font-size="14.00">act=sigmoid bias=___fc_layer_4__.wbias </text>
</g>
<!-- l15&#45;&gt;l16 -->
<g id="edge18" class="edge"><title>l15&#45;&gt;l16</title>
<path fill="none" stroke="black" d="M572.5,-152.941C572.5,-142.247 572.5,-125.578 572.5,-111.084"/>
<polygon fill="black" stroke="black" points="576,-111.031 572.5,-101.031 569,-111.031 576,-111.031"/>
<text text-anchor="middle" x="596.5" y="-122.4" font-family="Times,serif" font-size="14.00">layer2.w</text>
</g>
<!-- l34 -->
<g id="node35" class="node"><title>l34</title>
<polygon fill="none" stroke="black" points="1083.5,-24 883.5,-24 883.5,-0 1083.5,-0 1083.5,-24"/>
<text text-anchor="middle" x="983.5" y="-7.4" font-family="Times,serif" font-size="14.00">__rank_cost_0__ type=rank&#45;cost</text>
</g>
<!-- l16&#45;&gt;l34 -->
<g id="edge36" class="edge"><title>l16&#45;&gt;l34</title>
<path fill="none" stroke="black" d="M689.177,-60.9797C758.643,-49.6556 844.876,-35.5981 906.002,-25.6335"/>
<polygon fill="black" stroke="black" points="906.663,-29.072 915.97,-24.0086 905.537,-22.1632 906.663,-29.072"/>
</g>
<!-- l17 -->
<g id="node18" class="node"><title>l17</title>
<polygon fill="none" stroke="black" points="1200.5,-1018 1076.5,-1018 1076.5,-994 1200.5,-994 1200.5,-1018"/>
<text text-anchor="middle" x="1138.5" y="-1001.4" font-family="Times,serif" font-size="14.00">neg_title type=data</text>
</g>
<!-- l18 -->
<g id="node19" class="node"><title>l18</title>
<polygon fill="none" stroke="black" points="1234,-942 1043,-942 1043,-918 1234,-918 1234,-942"/>
<text text-anchor="middle" x="1138.5" y="-925.4" font-family="Times,serif" font-size="14.00">__embedding_1__ type=mixed</text>
</g>
<!-- l17&#45;&gt;l18 -->
<g id="edge19" class="edge"><title>l17&#45;&gt;l18</title>
<path fill="none" stroke="black" d="M1138.5,-993.761C1138.5,-982.895 1138.5,-966.144 1138.5,-952.68"/>
<polygon fill="black" stroke="black" points="1142,-952.345 1138.5,-942.345 1135,-952.345 1142,-952.345"/>
<text text-anchor="middle" x="1159" y="-963.4" font-family="Times,serif" font-size="14.00">layer.w</text>
</g>
<!-- l19 -->
<g id="node20" class="node"><title>l19</title>
<polygon fill="none" stroke="black" points="1143,-866 800,-866 800,-842 1143,-842 1143,-866"/>
<text text-anchor="middle" x="971.5" y="-849.4" font-family="Times,serif" font-size="14.00">lstm_transform___bidirectional_lstm_1___fw type=mixed</text>
</g>
<!-- l18&#45;&gt;l19 -->
<g id="edge20" class="edge"><title>l18&#45;&gt;l19</title>
<path fill="none" stroke="black" d="M1057.42,-917.968C1041.85,-913.774 1026.16,-907.987 1012.5,-900 1001.58,-893.613 991.901,-883.357 984.697,-874.248"/>
<polygon fill="black" stroke="black" points="987.362,-871.966 978.587,-866.029 981.745,-876.143 987.362,-871.966"/>
<text text-anchor="middle" x="1155" y="-887.4" font-family="Times,serif" font-size="14.00">_lstm_transform___bidirectional_lstm_1___fw.w0</text>
</g>
<!-- l21 -->
<g id="node22" class="node"><title>l21</title>
<polygon fill="none" stroke="black" points="1506,-866 1161,-866 1161,-842 1506,-842 1506,-866"/>
<text text-anchor="middle" x="1333.5" y="-849.4" font-family="Times,serif" font-size="14.00">lstm_transform___bidirectional_lstm_1___bw type=mixed</text>
</g>
<!-- l18&#45;&gt;l21 -->
<g id="edge22" class="edge"><title>l18&#45;&gt;l21</title>
<path fill="none" stroke="black" d="M1234.12,-922.877C1256.04,-918.475 1278.47,-911.363 1297.5,-900 1307.68,-893.923 1316.15,-883.829 1322.31,-874.74"/>
<polygon fill="black" stroke="black" points="1325.33,-876.504 1327.68,-866.172 1319.4,-872.787 1325.33,-876.504"/>
<text text-anchor="middle" x="1458" y="-887.4" font-family="Times,serif" font-size="14.00">_lstm_transform___bidirectional_lstm_1___bw.w0</text>
</g>
<!-- l20 -->
<g id="node21" class="node"><title>l20</title>
<polygon fill="none" stroke="black" points="1133.5,-790 823.5,-790 823.5,-750 1133.5,-750 1133.5,-790"/>
<text text-anchor="start" x="831.5" y="-773.4" font-family="Times,serif" font-size="14.00">__bidirectional_lstm_1___fw type=lstmemory</text>
<text text-anchor="middle" x="978.5" y="-757.4" font-family="Times,serif" font-size="14.00">act=tanh bias=___bidirectional_lstm_1___fw.wbias </text>
</g>
<!-- l19&#45;&gt;l20 -->
<g id="edge21" class="edge"><title>l19&#45;&gt;l20</title>
<path fill="none" stroke="black" d="M972.444,-841.941C973.357,-831.247 974.78,-814.578 976.017,-800.084"/>
<polygon fill="black" stroke="black" points="979.512,-800.293 976.875,-790.031 972.537,-799.697 979.512,-800.293"/>
<text text-anchor="middle" x="1072" y="-811.4" font-family="Times,serif" font-size="14.00">___bidirectional_lstm_1___fw.w0</text>
</g>
<!-- l23 -->
<g id="node24" class="node"><title>l23</title>
<polygon fill="none" stroke="black" points="1188,-713 955,-713 955,-689 1188,-689 1188,-713"/>
<text text-anchor="middle" x="1071.5" y="-696.4" font-family="Times,serif" font-size="14.00">__bidirectional_lstm_1__ type=concat</text>
</g>
<!-- l20&#45;&gt;l23 -->
<g id="edge24" class="edge"><title>l20&#45;&gt;l23</title>
<path fill="none" stroke="black" d="M1004.9,-749.98C1018.34,-740.298 1034.55,-728.618 1047.62,-719.207"/>
<polygon fill="black" stroke="black" points="1050.02,-721.791 1056.08,-713.106 1045.92,-716.112 1050.02,-721.791"/>
</g>
<!-- l22 -->
<g id="node23" class="node"><title>l22</title>
<polygon fill="none" stroke="black" points="1465.5,-790 1153.5,-790 1153.5,-750 1465.5,-750 1465.5,-790"/>
<text text-anchor="start" x="1161.5" y="-773.4" font-family="Times,serif" font-size="14.00">__bidirectional_lstm_1___bw type=lstmemory &lt;==</text>
<text text-anchor="middle" x="1309.5" y="-757.4" font-family="Times,serif" font-size="14.00">act=tanh bias=___bidirectional_lstm_1___bw.wbias </text>
</g>
<!-- l21&#45;&gt;l22 -->
<g id="edge23" class="edge"><title>l21&#45;&gt;l22</title>
<path fill="none" stroke="black" d="M1330.26,-841.941C1327.1,-831.143 1322.16,-814.254 1317.89,-799.663"/>
<polygon fill="black" stroke="black" points="1321.24,-798.646 1315.07,-790.031 1314.52,-800.612 1321.24,-798.646"/>
<text text-anchor="middle" x="1421" y="-811.4" font-family="Times,serif" font-size="14.00">___bidirectional_lstm_1___bw.w0</text>
</g>
<!-- l22&#45;&gt;l23 -->
<g id="edge25" class="edge"><title>l22&#45;&gt;l23</title>
<path fill="none" stroke="black" d="M1241.94,-749.98C1203.29,-739.099 1155.67,-725.695 1120.6,-715.823"/>
<polygon fill="black" stroke="black" points="1121.18,-712.349 1110.61,-713.009 1119.28,-719.087 1121.18,-712.349"/>
</g>
<!-- l24 -->
<g id="node25" class="node"><title>l24</title>
<polygon fill="none" stroke="black" points="1156,-652 987,-652 987,-628 1156,-628 1156,-652"/>
<text text-anchor="middle" x="1071.5" y="-635.4" font-family="Times,serif" font-size="14.00">__dropout_1__ type=addto</text>
</g>
<!-- l23&#45;&gt;l24 -->
<g id="edge26" class="edge"><title>l23&#45;&gt;l24</title>
<path fill="none" stroke="black" d="M1071.5,-688.903C1071.5,-681.403 1071.5,-671.263 1071.5,-662.242"/>
<polygon fill="black" stroke="black" points="1075,-662.048 1071.5,-652.048 1068,-662.048 1075,-662.048"/>
</g>
<!-- l25 -->
<g id="node26" class="node"><title>l25</title>
<polygon fill="none" stroke="black" points="1153,-576 1002,-576 1002,-536 1153,-536 1153,-576"/>
<text text-anchor="start" x="1010" y="-559.4" font-family="Times,serif" font-size="14.00">__fc_layer_5__ type=fc</text>
<text text-anchor="middle" x="1077.5" y="-543.4" font-family="Times,serif" font-size="14.00">act=sequence_softmax </text>
</g>
<!-- l24&#45;&gt;l25 -->
<g id="edge27" class="edge"><title>l24&#45;&gt;l25</title>
<path fill="none" stroke="black" d="M1072.31,-627.941C1073.09,-617.247 1074.31,-600.578 1075.37,-586.084"/>
<polygon fill="black" stroke="black" points="1078.87,-586.26 1076.11,-576.031 1071.89,-585.749 1078.87,-586.26"/>
<text text-anchor="middle" x="1099.5" y="-597.4" font-family="Times,serif" font-size="14.00">layer1.w</text>
</g>
<!-- l26 -->
<g id="node27" class="node"><title>l26</title>
<polygon fill="none" stroke="black" points="1090.5,-499 882.5,-499 882.5,-475 1090.5,-475 1090.5,-499"/>
<text text-anchor="middle" x="986.5" y="-482.4" font-family="Times,serif" font-size="14.00">__scaling_layer_1__ type=scaling</text>
</g>
<!-- l24&#45;&gt;l26 -->
<g id="edge29" class="edge"><title>l24&#45;&gt;l26</title>
<path fill="none" stroke="black" d="M1049.11,-627.948C1030.41,-617.398 1004.88,-599.616 992.5,-576 981.615,-555.236 981.603,-527.836 983.353,-509.161"/>
<polygon fill="black" stroke="black" points="986.85,-509.388 984.552,-499.045 979.899,-508.563 986.85,-509.388"/>
</g>
<!-- l25&#45;&gt;l26 -->
<g id="edge28" class="edge"><title>l25&#45;&gt;l26</title>
<path fill="none" stroke="black" d="M1051.67,-535.98C1038.52,-526.298 1022.65,-514.618 1009.87,-505.207"/>
<polygon fill="black" stroke="black" points="1011.71,-502.217 1001.58,-499.106 1007.56,-507.853 1011.71,-502.217"/>
</g>
<!-- l27 -->
<g id="node28" class="node"><title>l27</title>
<polygon fill="none" stroke="black" points="1089.5,-438 883.5,-438 883.5,-398 1089.5,-398 1089.5,-438"/>
<text text-anchor="start" x="891.5" y="-421.4" font-family="Times,serif" font-size="14.00">__seq_pooling_1__ type=average</text>
<text text-anchor="middle" x="986.5" y="-405.4" font-family="Times,serif" font-size="14.00">act=linear </text>
</g>
<!-- l26&#45;&gt;l27 -->
<g id="edge30" class="edge"><title>l26&#45;&gt;l27</title>
<path fill="none" stroke="black" d="M986.5,-474.936C986.5,-467.699 986.5,-457.876 986.5,-448.481"/>
<polygon fill="black" stroke="black" points="990,-448.216 986.5,-438.216 983,-448.216 990,-448.216"/>
</g>
<!-- l28 -->
<g id="node29" class="node"><title>l28</title>
<polygon fill="none" stroke="black" points="1103,-346 870,-346 870,-306 1103,-306 1103,-346"/>
<text text-anchor="start" x="878" y="-329.4" font-family="Times,serif" font-size="14.00">__fc_layer_6__ type=fc</text>
<text text-anchor="middle" x="986.5" y="-313.4" font-family="Times,serif" font-size="14.00">act=tanh bias=___fc_layer_6__.wbias </text>
</g>
<!-- l27&#45;&gt;l28 -->
<g id="edge31" class="edge"><title>l27&#45;&gt;l28</title>
<path fill="none" stroke="black" d="M986.5,-397.913C986.5,-385.862 986.5,-370.049 986.5,-356.414"/>
<polygon fill="black" stroke="black" points="990,-356.059 986.5,-346.059 983,-356.059 990,-356.059"/>
<text text-anchor="middle" x="1044.5" y="-367.4" font-family="Times,serif" font-size="14.00">___fc_layer_6__.w0</text>
</g>
<!-- l29 -->
<g id="node30" class="node"><title>l29</title>
<polygon fill="none" stroke="black" points="1103,-254 870,-254 870,-214 1103,-214 1103,-254"/>
<text text-anchor="start" x="878" y="-237.4" font-family="Times,serif" font-size="14.00">__fc_layer_7__ type=fc</text>
<text text-anchor="middle" x="986.5" y="-221.4" font-family="Times,serif" font-size="14.00">act=tanh bias=___fc_layer_7__.wbias </text>
</g>
<!-- l28&#45;&gt;l29 -->
<g id="edge32" class="edge"><title>l28&#45;&gt;l29</title>
<path fill="none" stroke="black" d="M986.5,-305.913C986.5,-293.862 986.5,-278.049 986.5,-264.414"/>
<polygon fill="black" stroke="black" points="990,-264.059 986.5,-254.059 983,-264.059 990,-264.059"/>
<text text-anchor="middle" x="1044.5" y="-275.4" font-family="Times,serif" font-size="14.00">___fc_layer_7__.w0</text>
</g>
<!-- l29&#45;&gt;l30 -->
<g id="edge34" class="edge"><title>l29&#45;&gt;l30</title>
<path fill="none" stroke="black" d="M945.904,-213.98C923.949,-203.693 897.18,-191.151 876.518,-181.47"/>
<polygon fill="black" stroke="black" points="877.744,-178.179 867.204,-177.106 874.774,-184.518 877.744,-178.179"/>
</g>
<!-- l31 -->
<g id="node32" class="node"><title>l31</title>
<polygon fill="none" stroke="black" points="970,-101 717,-101 717,-61 970,-61 970,-101"/>
<text text-anchor="start" x="725" y="-84.4" font-family="Times,serif" font-size="14.00">__fc_layer_8__ type=fc</text>
<text text-anchor="middle" x="843.5" y="-68.4" font-family="Times,serif" font-size="14.00">act=sigmoid bias=___fc_layer_8__.wbias </text>
</g>
<!-- l30&#45;&gt;l31 -->
<g id="edge35" class="edge"><title>l30&#45;&gt;l31</title>
<path fill="none" stroke="black" d="M843.5,-152.941C843.5,-142.247 843.5,-125.578 843.5,-111.084"/>
<polygon fill="black" stroke="black" points="847,-111.031 843.5,-101.031 840,-111.031 847,-111.031"/>
<text text-anchor="middle" x="867.5" y="-122.4" font-family="Times,serif" font-size="14.00">layer2.w</text>
</g>
<!-- l31&#45;&gt;l34 -->
<g id="edge37" class="edge"><title>l31&#45;&gt;l34</title>
<path fill="none" stroke="black" d="M883.244,-60.9797C904.739,-50.693 930.946,-38.1507 951.175,-28.4699"/>
<polygon fill="black" stroke="black" points="952.784,-31.58 960.293,-24.106 949.762,-25.2658 952.784,-31.58"/>
</g>
<!-- l32 -->
<g id="node33" class="node"><title>l32</title>
<polygon fill="none" stroke="black" points="1091,-93 988,-93 988,-69 1091,-69 1091,-93"/>
<text text-anchor="middle" x="1039.5" y="-76.4" font-family="Times,serif" font-size="14.00">label type=data</text>
</g>
<!-- l32&#45;&gt;l34 -->
<g id="edge38" class="edge"><title>l32&#45;&gt;l34</title>
<path fill="none" stroke="black" d="M1030.25,-68.9363C1021.87,-58.9103 1009.35,-43.9222 999.367,-31.9836"/>
<polygon fill="black" stroke="black" points="1002.05,-29.7323 992.948,-24.3041 996.676,-34.2215 1002.05,-29.7323"/>
</g>
<!-- l33 -->
<g id="node34" class="node"><title>l33</title>
<polygon fill="none" stroke="black" points="1222,-93 1109,-93 1109,-69 1222,-69 1222,-93"/>
<text text-anchor="middle" x="1165.5" y="-76.4" font-family="Times,serif" font-size="14.00">weight type=data</text>
</g>
<!-- l33&#45;&gt;l34 -->
<g id="edge39" class="edge"><title>l33&#45;&gt;l34</title>
<path fill="none" stroke="black" d="M1135.45,-68.9363C1104.75,-57.6376 1056.94,-40.0371 1023.16,-27.6009"/>
<polygon fill="black" stroke="black" points="1024.19,-24.2503 1013.6,-24.0801 1021.77,-30.8194 1024.19,-24.2503"/>
</g>
</g>
</svg>
