<?xml version="1.0" encoding="UTF-8" standalone="no"?>
<!DOCTYPE svg PUBLIC "-//W3C//DTD SVG 1.1//EN"
 "http://www.w3.org/Graphics/SVG/1.1/DTD/svg11.dtd">
<!-- Generated by graphviz version 2.38.0 (20140413.2041)
 -->
<!-- Title: graphname Pages: 1 -->
<svg width="810pt" height="889pt"
 viewBox="0.00 0.00 809.50 889.00" xmlns="http://www.w3.org/2000/svg" xmlns:xlink="http://www.w3.org/1999/xlink">
<g id="graph0" class="graph" transform="scale(1 1) rotate(0) translate(4 885)">
<title>graphname</title>
<polygon fill="white" stroke="none" points="-4,4 -4,-885 805.5,-885 805.5,4 -4,4"/>
<!-- l0 -->
<g id="node1" class="node"><title>l0</title>
<polygon fill="none" stroke="black" points="218.5,-438 74.5,-438 74.5,-414 218.5,-414 218.5,-438"/>
<text text-anchor="middle" x="146.5" y="-421.4" font-family="Times,serif" font-size="14.00">img_feature type=data</text>
</g>
<!-- l1 -->
<g id="node2" class="node"><title>l1</title>
<polygon fill="none" stroke="black" points="263,-362 30,-362 30,-322 263,-322 263,-362"/>
<text text-anchor="start" x="38" y="-345.4" font-family="Times,serif" font-size="14.00">__fc_layer_0__ type=fc</text>
<text text-anchor="middle" x="146.5" y="-329.4" font-family="Times,serif" font-size="14.00">act=tanh bias=___fc_layer_0__.wbias </text>
</g>
<!-- l0&#45;&gt;l1 -->
<g id="edge1" class="edge"><title>l0&#45;&gt;l1</title>
<path fill="none" stroke="black" d="M146.5,-413.941C146.5,-403.247 146.5,-386.578 146.5,-372.084"/>
<polygon fill="black" stroke="black" points="150,-372.031 146.5,-362.031 143,-372.031 150,-372.031"/>
<text text-anchor="middle" x="204.5" y="-383.4" font-family="Times,serif" font-size="14.00">___fc_layer_0__.w0</text>
</g>
<!-- l13 -->
<g id="node14" class="node"><title>l13</title>
<polygon fill="none" stroke="black" points="382.5,-285 214.5,-285 214.5,-245 382.5,-245 382.5,-285"/>
<text text-anchor="start" x="222.5" y="-268.4" font-family="Times,serif" font-size="14.00">__concat_0__ type=concat</text>
<text text-anchor="middle" x="298.5" y="-252.4" font-family="Times,serif" font-size="14.00">act=sigmoid </text>
</g>
<!-- l1&#45;&gt;l13 -->
<g id="edge13" class="edge"><title>l1&#45;&gt;l13</title>
<path fill="none" stroke="black" d="M185.249,-321.88C205.17,-312.051 229.627,-299.983 250.709,-289.581"/>
<polygon fill="black" stroke="black" points="252.402,-292.648 259.821,-285.085 249.305,-286.371 252.402,-292.648"/>
</g>
<!-- l2 -->
<g id="node3" class="node"><title>l2</title>
<polygon fill="none" stroke="black" points="401,-881 276,-881 276,-857 401,-857 401,-881"/>
<text text-anchor="middle" x="338.5" y="-864.4" font-family="Times,serif" font-size="14.00">pos_title type=data</text>
</g>
<!-- l3 -->
<g id="node4" class="node"><title>l3</title>
<polygon fill="none" stroke="black" points="434,-805 243,-805 243,-781 434,-781 434,-805"/>
<text text-anchor="middle" x="338.5" y="-788.4" font-family="Times,serif" font-size="14.00">__embedding_0__ type=mixed</text>
</g>
<!-- l2&#45;&gt;l3 -->
<g id="edge2" class="edge"><title>l2&#45;&gt;l3</title>
<path fill="none" stroke="black" d="M338.5,-856.761C338.5,-845.895 338.5,-829.144 338.5,-815.68"/>
<polygon fill="black" stroke="black" points="342,-815.345 338.5,-805.345 335,-815.345 342,-815.345"/>
<text text-anchor="middle" x="359" y="-826.4" font-family="Times,serif" font-size="14.00">layer.w</text>
</g>
<!-- l4 -->
<g id="node5" class="node"><title>l4</title>
<polygon fill="none" stroke="black" points="343,-729 2.84217e-14,-729 2.84217e-14,-705 343,-705 343,-729"/>
<text text-anchor="middle" x="171.5" y="-712.4" font-family="Times,serif" font-size="14.00">lstm_transform___bidirectional_lstm_0___fw type=mixed</text>
</g>
<!-- l3&#45;&gt;l4 -->
<g id="edge3" class="edge"><title>l3&#45;&gt;l4</title>
<path fill="none" stroke="black" d="M257.424,-780.968C241.854,-776.774 226.162,-770.987 212.5,-763 201.575,-756.613 191.901,-746.357 184.697,-737.248"/>
<polygon fill="black" stroke="black" points="187.362,-734.966 178.587,-729.029 181.745,-739.143 187.362,-734.966"/>
<text text-anchor="middle" x="355" y="-750.4" font-family="Times,serif" font-size="14.00">_lstm_transform___bidirectional_lstm_0___fw.w0</text>
</g>
<!-- l6 -->
<g id="node7" class="node"><title>l6</title>
<polygon fill="none" stroke="black" points="706,-729 361,-729 361,-705 706,-705 706,-729"/>
<text text-anchor="middle" x="533.5" y="-712.4" font-family="Times,serif" font-size="14.00">lstm_transform___bidirectional_lstm_0___bw type=mixed</text>
</g>
<!-- l3&#45;&gt;l6 -->
<g id="edge5" class="edge"><title>l3&#45;&gt;l6</title>
<path fill="none" stroke="black" d="M434.125,-785.877C456.039,-781.475 478.467,-774.363 497.5,-763 507.68,-756.923 516.149,-746.829 522.31,-737.74"/>
<polygon fill="black" stroke="black" points="525.335,-739.504 527.679,-729.172 519.403,-735.787 525.335,-739.504"/>
<text text-anchor="middle" x="658" y="-750.4" font-family="Times,serif" font-size="14.00">_lstm_transform___bidirectional_lstm_0___bw.w0</text>
</g>
<!-- l5 -->
<g id="node6" class="node"><title>l5</title>
<polygon fill="none" stroke="black" points="346.5,-653 36.5,-653 36.5,-613 346.5,-613 346.5,-653"/>
<text text-anchor="start" x="44.5" y="-636.4" font-family="Times,serif" font-size="14.00">__bidirectional_lstm_0___fw type=lstmemory</text>
<text text-anchor="middle" x="191.5" y="-620.4" font-family="Times,serif" font-size="14.00">act=tanh bias=___bidirectional_lstm_0___fw.wbias </text>
</g>
<!-- l4&#45;&gt;l5 -->
<g id="edge4" class="edge"><title>l4&#45;&gt;l5</title>
<path fill="none" stroke="black" d="M174.197,-704.941C176.806,-694.247 180.871,-677.578 184.406,-663.084"/>
<polygon fill="black" stroke="black" points="187.889,-663.576 186.858,-653.031 181.088,-661.917 187.889,-663.576"/>
<text text-anchor="middle" x="279" y="-674.4" font-family="Times,serif" font-size="14.00">___bidirectional_lstm_0___fw.w0</text>
</g>
<!-- l8 -->
<g id="node9" class="node"><title>l8</title>
<polygon fill="none" stroke="black" points="349.5,-576 51.5,-576 51.5,-536 349.5,-536 349.5,-576"/>
<text text-anchor="start" x="59.5" y="-559.4" font-family="Times,serif" font-size="14.00">__bidirectional_lstm_0___fw_last type=seqlastins</text>
<text text-anchor="middle" x="200.5" y="-543.4" font-family="Times,serif" font-size="14.00">act=linear </text>
</g>
<!-- l5&#45;&gt;l8 -->
<g id="edge7" class="edge"><title>l5&#45;&gt;l8</title>
<path fill="none" stroke="black" d="M193.818,-612.686C194.784,-604.637 195.926,-595.114 196.991,-586.24"/>
<polygon fill="black" stroke="black" points="200.474,-586.595 198.19,-576.249 193.524,-585.761 200.474,-586.595"/>
</g>
<!-- l7 -->
<g id="node8" class="node"><title>l7</title>
<polygon fill="none" stroke="black" points="678.5,-653 366.5,-653 366.5,-613 678.5,-613 678.5,-653"/>
<text text-anchor="start" x="374.5" y="-636.4" font-family="Times,serif" font-size="14.00">__bidirectional_lstm_0___bw type=lstmemory &lt;==</text>
<text text-anchor="middle" x="522.5" y="-620.4" font-family="Times,serif" font-size="14.00">act=tanh bias=___bidirectional_lstm_0___bw.wbias </text>
</g>
<!-- l6&#45;&gt;l7 -->
<g id="edge6" class="edge"><title>l6&#45;&gt;l7</title>
<path fill="none" stroke="black" d="M532.016,-704.941C530.582,-694.247 528.346,-677.578 526.402,-663.084"/>
<polygon fill="black" stroke="black" points="529.852,-662.477 525.053,-653.031 522.914,-663.408 529.852,-662.477"/>
<text text-anchor="middle" x="626" y="-674.4" font-family="Times,serif" font-size="14.00">___bidirectional_lstm_0___bw.w0</text>
</g>
<!-- l9 -->
<g id="node10" class="node"><title>l9</title>
<polygon fill="none" stroke="black" points="668.5,-576 368.5,-576 368.5,-536 668.5,-536 668.5,-576"/>
<text text-anchor="start" x="376.5" y="-559.4" font-family="Times,serif" font-size="14.00">__bidirectional_lstm_0___bw_last type=seqlastins</text>
<text text-anchor="middle" x="518.5" y="-543.4" font-family="Times,serif" font-size="14.00">act=linear </text>
</g>
<!-- l7&#45;&gt;l9 -->
<g id="edge8" class="edge"><title>l7&#45;&gt;l9</title>
<path fill="none" stroke="black" d="M521.47,-612.686C521.041,-604.637 520.533,-595.114 520.059,-586.24"/>
<polygon fill="black" stroke="black" points="523.554,-586.048 519.527,-576.249 516.564,-586.421 523.554,-586.048"/>
</g>
<!-- l10 -->
<g id="node11" class="node"><title>l10</title>
<polygon fill="none" stroke="black" points="512,-499 279,-499 279,-475 512,-475 512,-499"/>
<text text-anchor="middle" x="395.5" y="-482.4" font-family="Times,serif" font-size="14.00">__bidirectional_lstm_0__ type=concat</text>
</g>
<!-- l8&#45;&gt;l10 -->
<g id="edge9" class="edge"><title>l8&#45;&gt;l10</title>
<path fill="none" stroke="black" d="M255.858,-535.98C286.981,-525.286 325.199,-512.155 353.78,-502.335"/>
<polygon fill="black" stroke="black" points="355.14,-505.568 363.46,-499.009 352.865,-498.948 355.14,-505.568"/>
</g>
<!-- l9&#45;&gt;l10 -->
<g id="edge10" class="edge"><title>l9&#45;&gt;l10</title>
<path fill="none" stroke="black" d="M483.582,-535.98C465.125,-525.926 442.712,-513.717 425.114,-504.131"/>
<polygon fill="black" stroke="black" points="426.345,-500.816 415.889,-499.106 422.996,-506.963 426.345,-500.816"/>
</g>
<!-- l11 -->
<g id="node12" class="node"><title>l11</title>
<polygon fill="none" stroke="black" points="480,-438 311,-438 311,-414 480,-414 480,-438"/>
<text text-anchor="middle" x="395.5" y="-421.4" font-family="Times,serif" font-size="14.00">__dropout_0__ type=addto</text>
</g>
<!-- l10&#45;&gt;l11 -->
<g id="edge11" class="edge"><title>l10&#45;&gt;l11</title>
<path fill="none" stroke="black" d="M395.5,-474.903C395.5,-467.403 395.5,-457.263 395.5,-448.242"/>
<polygon fill="black" stroke="black" points="399,-448.048 395.5,-438.048 392,-448.048 399,-448.048"/>
</g>
<!-- l12 -->
<g id="node13" class="node"><title>l12</title>
<polygon fill="none" stroke="black" points="510.5,-362 280.5,-362 280.5,-322 510.5,-322 510.5,-362"/>
<text text-anchor="start" x="288.5" y="-345.4" font-family="Times,serif" font-size="14.00">__fc_layer_1__ type=fc</text>
<text text-anchor="middle" x="395.5" y="-329.4" font-family="Times,serif" font-size="14.00">act=relu bias=___fc_layer_1__.wbias </text>
</g>
<!-- l11&#45;&gt;l12 -->
<g id="edge12" class="edge"><title>l11&#45;&gt;l12</title>
<path fill="none" stroke="black" d="M395.5,-413.941C395.5,-403.247 395.5,-386.578 395.5,-372.084"/>
<polygon fill="black" stroke="black" points="399,-372.031 395.5,-362.031 392,-372.031 399,-372.031"/>
<text text-anchor="middle" x="453.5" y="-383.4" font-family="Times,serif" font-size="14.00">___fc_layer_1__.w0</text>
</g>
<!-- l12&#45;&gt;l13 -->
<g id="edge14" class="edge"><title>l12&#45;&gt;l13</title>
<path fill="none" stroke="black" d="M370.772,-321.88C358.8,-312.624 344.262,-301.383 331.372,-291.416"/>
<polygon fill="black" stroke="black" points="333.235,-288.433 323.183,-285.085 328.953,-293.971 333.235,-288.433"/>
</g>
<!-- l14 -->
<g id="node15" class="node"><title>l14</title>
<polygon fill="none" stroke="black" points="424.5,-193 172.5,-193 172.5,-153 424.5,-153 424.5,-193"/>
<text text-anchor="start" x="180.5" y="-176.4" font-family="Times,serif" font-size="14.00">__batch_norm_0__ type=batch_norm</text>
<text text-anchor="middle" x="298.5" y="-160.4" font-family="Times,serif" font-size="14.00">act=relu bias=___batch_norm_0__.wbias </text>
</g>
<!-- l13&#45;&gt;l14 -->
<g id="edge15" class="edge"><title>l13&#45;&gt;l14</title>
<path fill="none" stroke="black" d="M214.325,-254.142C181.161,-248.372 148.57,-239.664 138.5,-227 122.28,-206.601 136.711,-193.981 162.43,-186.196"/>
<polygon fill="black" stroke="black" points="163.621,-189.501 172.38,-183.541 161.816,-182.737 163.621,-189.501"/>
<text text-anchor="middle" x="207.5" y="-214.4" font-family="Times,serif" font-size="14.00">___batch_norm_0__.w0</text>
</g>
<!-- l13&#45;&gt;l14 -->
<g id="edge16" class="edge"><title>l13&#45;&gt;l14</title>
<path fill="none" stroke="black" d="M298.5,-244.913C298.5,-232.862 298.5,-217.049 298.5,-203.414"/>
<polygon fill="black" stroke="black" points="302,-203.059 298.5,-193.059 295,-203.059 302,-203.059"/>
<text text-anchor="middle" x="367.5" y="-214.4" font-family="Times,serif" font-size="14.00">___batch_norm_0__.w1</text>
</g>
<!-- l13&#45;&gt;l14 -->
<g id="edge17" class="edge"><title>l13&#45;&gt;l14</title>
<path fill="none" stroke="black" d="M382.715,-250.379C407.473,-244.555 429.967,-236.801 437.5,-227 447.315,-214.23 444.1,-204.537 433.62,-197.178"/>
<polygon fill="black" stroke="black" points="435.221,-194.063 424.787,-192.223 431.795,-200.168 435.221,-194.063"/>
<text text-anchor="middle" x="511.5" y="-214.4" font-family="Times,serif" font-size="14.00">___batch_norm_0__.w2</text>
</g>
<!-- l15 -->
<g id="node16" class="node"><title>l15</title>
<polygon fill="none" stroke="black" points="425,-101 172,-101 172,-61 425,-61 425,-101"/>
<text text-anchor="start" x="180" y="-84.4" font-family="Times,serif" font-size="14.00">__fc_layer_2__ type=fc</text>
<text text-anchor="middle" x="298.5" y="-68.4" font-family="Times,serif" font-size="14.00">act=sigmoid bias=___fc_layer_2__.wbias </text>
</g>
<!-- l14&#45;&gt;l15 -->
<g id="edge18" class="edge"><title>l14&#45;&gt;l15</title>
<path fill="none" stroke="black" d="M298.5,-152.913C298.5,-140.862 298.5,-125.049 298.5,-111.414"/>
<polygon fill="black" stroke="black" points="302,-111.059 298.5,-101.059 295,-111.059 302,-111.059"/>
<text text-anchor="middle" x="356.5" y="-122.4" font-family="Times,serif" font-size="14.00">___fc_layer_2__.w0</text>
</g>
<!-- l18 -->
<g id="node19" class="node"><title>l18</title>
<polygon fill="none" stroke="black" points="569.5,-24 315.5,-24 315.5,-0 569.5,-0 569.5,-24"/>
<text text-anchor="middle" x="442.5" y="-7.4" font-family="Times,serif" font-size="14.00">__regression_cost_0__ type=square_error</text>
</g>
<!-- l15&#45;&gt;l18 -->
<g id="edge19" class="edge"><title>l15&#45;&gt;l18</title>
<path fill="none" stroke="black" d="M339.379,-60.9797C361.588,-50.6464 388.689,-38.0372 409.533,-28.3386"/>
<polygon fill="black" stroke="black" points="411.04,-31.4979 418.63,-24.106 408.087,-25.1512 411.04,-31.4979"/>
</g>
<!-- l16 -->
<g id="node17" class="node"><title>l16</title>
<polygon fill="none" stroke="black" points="556,-93 443,-93 443,-69 556,-69 556,-93"/>
<text text-anchor="middle" x="499.5" y="-76.4" font-family="Times,serif" font-size="14.00">weight type=data</text>
</g>
<!-- l16&#45;&gt;l18 -->
<g id="edge20" class="edge"><title>l16&#45;&gt;l18</title>
<path fill="none" stroke="black" d="M490.088,-68.9363C481.558,-58.9103 468.807,-43.9222 458.65,-31.9836"/>
<polygon fill="black" stroke="black" points="461.263,-29.6527 452.117,-24.3041 455.931,-34.1886 461.263,-29.6527"/>
</g>
<!-- l17 -->
<g id="node18" class="node"><title>l17</title>
<polygon fill="none" stroke="black" points="522,-881 419,-881 419,-857 522,-857 522,-881"/>
<text text-anchor="middle" x="470.5" y="-864.4" font-family="Times,serif" font-size="14.00">label type=data</text>
</g>
</g>
</svg>
